M48
; DRILL file {KiCad 9.0.1} date 2026-01-27T16:11:25-0500
; FORMAT={-:-/ absolute / metric / decimal}
; #@! TF.CreationDate,2026-01-27T16:11:25-05:00
; #@! TF.GenerationSoftware,Kicad,Pcbnew,9.0.1
; #@! TF.FileFunction,MixedPlating,1,2
FMAT,2
METRIC
; #@! TA.AperFunction,Plated,PTH,ViaDrill
T1C0.150
; #@! TA.AperFunction,Plated,PTH,ViaDrill
T2C0.300
; #@! TA.AperFunction,Plated,PTH,ComponentDrill
T3C1.000
; #@! TA.AperFunction,NonPlated,NPTH,ComponentDrill
T4C0.500
%
G90
G05
T1
X44.862Y142.445
X44.862Y85.445
X44.862Y28.445
X47.915Y142.3
X47.915Y85.3
X47.915Y28.3
X131.862Y142.445
X131.862Y85.445
X131.862Y28.445
X134.914Y142.3
X134.914Y85.3
X134.914Y28.3
T2
X66.25Y145.7
X66.25Y88.7
X66.25Y31.7
X69.66Y142.74
X69.66Y85.74
X69.66Y28.74
X70.459Y142.74
X70.459Y85.74
X70.459Y28.74
X70.74Y146.656
X70.74Y89.656
X70.74Y32.656
X71.258Y142.74
X71.258Y85.74
X71.258Y28.74
X72.485Y150.91
X72.485Y93.91
X72.485Y36.91
X74.78Y150.11
X74.78Y93.11
X74.78Y36.11
X79.16Y155.425
X79.16Y154.589
X79.16Y153.753
X79.16Y152.917
X79.16Y152.081
X79.16Y151.244
X79.16Y150.408
X79.16Y98.425
X79.16Y97.589
X79.16Y96.753
X79.16Y95.917
X79.16Y95.081
X79.16Y94.244
X79.16Y93.408
X79.16Y41.425
X79.16Y40.589
X79.16Y39.753
X79.16Y38.917
X79.16Y38.081
X79.16Y37.244
X79.16Y36.408
X79.91Y165.94
X79.91Y108.94
X79.91Y51.94
X82.08Y170.37
X82.08Y113.37
X82.08Y56.37
X84.83Y131.62
X84.83Y74.62
X84.83Y17.62
X84.88Y129.87
X84.88Y72.87
X84.88Y15.87
X153.249Y145.7
X153.249Y88.7
X153.249Y31.7
X156.659Y142.74
X156.659Y85.74
X156.659Y28.74
X157.458Y142.74
X157.458Y85.74
X157.458Y28.74
X157.739Y146.656
X157.739Y89.656
X157.739Y32.656
X158.257Y142.74
X158.257Y85.74
X158.257Y28.74
X159.485Y150.91
X159.485Y93.91
X159.485Y36.91
X161.779Y150.11
X161.779Y93.11
X161.779Y36.11
X166.159Y155.425
X166.159Y154.589
X166.159Y153.753
X166.159Y152.917
X166.159Y152.081
X166.159Y151.244
X166.159Y150.408
X166.159Y98.425
X166.159Y97.589
X166.159Y96.753
X166.159Y95.917
X166.159Y95.081
X166.159Y94.244
X166.159Y93.408
X166.159Y41.425
X166.159Y40.589
X166.159Y39.753
X166.159Y38.917
X166.159Y38.081
X166.159Y37.244
X166.159Y36.408
X166.909Y165.94
X166.909Y108.94
X166.909Y51.94
X169.079Y170.37
X169.079Y113.37
X169.079Y56.37
X171.829Y131.62
X171.829Y74.62
X171.829Y17.62
X171.879Y129.87
X171.879Y72.87
X171.879Y15.87
T3
X69.36Y125.965
X69.36Y68.965
X69.36Y11.965
X71.9Y125.965
X71.9Y68.965
X71.9Y11.965
X74.44Y125.965
X74.44Y68.965
X74.44Y11.965
X76.98Y125.965
X76.98Y68.965
X76.98Y11.965
X88.8Y155.79
X88.8Y153.25
X88.8Y150.71
X88.8Y148.17
X88.8Y145.63
X88.8Y143.09
X88.8Y140.55
X88.8Y138.01
X88.8Y135.47
X88.8Y132.93
X88.8Y130.39
X88.8Y127.85
X88.8Y98.79
X88.8Y96.25
X88.8Y93.71
X88.8Y91.17
X88.8Y88.63
X88.8Y86.09
X88.8Y83.55
X88.8Y81.01
X88.8Y78.47
X88.8Y75.93
X88.8Y73.39
X88.8Y70.85
X88.8Y41.79
X88.8Y39.25
X88.8Y36.71
X88.8Y34.17
X88.8Y31.63
X88.8Y29.09
X88.8Y26.55
X88.8Y24.01
X88.8Y21.47
X88.8Y18.93
X88.8Y16.39
X88.8Y13.85
X91.34Y155.79
X91.34Y153.25
X91.34Y150.71
X91.34Y148.17
X91.34Y145.63
X91.34Y143.09
X91.34Y140.55
X91.34Y138.01
X91.34Y135.47
X91.34Y132.93
X91.34Y130.39
X91.34Y127.85
X91.34Y98.79
X91.34Y96.25
X91.34Y93.71
X91.34Y91.17
X91.34Y88.63
X91.34Y86.09
X91.34Y83.55
X91.34Y81.01
X91.34Y78.47
X91.34Y75.93
X91.34Y73.39
X91.34Y70.85
X91.34Y41.79
X91.34Y39.25
X91.34Y36.71
X91.34Y34.17
X91.34Y31.63
X91.34Y29.09
X91.34Y26.55
X91.34Y24.01
X91.34Y21.47
X91.34Y18.93
X91.34Y16.39
X91.34Y13.85
X156.359Y125.965
X156.359Y68.965
X156.359Y11.965
X158.899Y125.965
X158.899Y68.965
X158.899Y11.965
X161.439Y125.965
X161.439Y68.965
X161.439Y11.965
X163.979Y125.965
X163.979Y68.965
X163.979Y11.965
X175.799Y155.79
X175.799Y153.25
X175.799Y150.71
X175.799Y148.17
X175.799Y145.63
X175.799Y143.09
X175.799Y140.55
X175.799Y138.01
X175.799Y135.47
X175.799Y132.93
X175.799Y130.39
X175.799Y127.85
X175.799Y98.79
X175.799Y96.25
X175.799Y93.71
X175.799Y91.17
X175.799Y88.63
X175.799Y86.09
X175.799Y83.55
X175.799Y81.01
X175.799Y78.47
X175.799Y75.93
X175.799Y73.39
X175.799Y70.85
X175.799Y41.79
X175.799Y39.25
X175.799Y36.71
X175.799Y34.17
X175.799Y31.63
X175.799Y29.09
X175.799Y26.55
X175.799Y24.01
X175.799Y21.47
X175.799Y18.93
X175.799Y16.39
X175.799Y13.85
X178.339Y155.79
X178.339Y153.25
X178.339Y150.71
X178.339Y148.17
X178.339Y145.63
X178.339Y143.09
X178.339Y140.55
X178.339Y138.01
X178.339Y135.47
X178.339Y132.93
X178.339Y130.39
X178.339Y127.85
X178.339Y98.79
X178.339Y96.25
X178.339Y93.71
X178.339Y91.17
X178.339Y88.63
X178.339Y86.09
X178.339Y83.55
X178.339Y81.01
X178.339Y78.47
X178.339Y75.93
X178.339Y73.39
X178.339Y70.85
X178.339Y41.79
X178.339Y39.25
X178.339Y36.71
X178.339Y34.17
X178.339Y31.63
X178.339Y29.09
X178.339Y26.55
X178.339Y24.01
X178.339Y21.47
X178.339Y18.93
X178.339Y16.39
X178.339Y13.85
T4
X0.0Y179.0
X0.0Y10.0
X0.8Y179.0
X0.8Y10.0
X1.6Y179.0
X1.6Y10.0
X2.4Y179.0
X2.4Y10.0
X3.2Y179.0
X3.2Y10.0
X4.0Y179.0
X4.0Y10.0
X4.8Y179.0
X4.8Y10.0
X5.6Y179.0
X5.6Y10.0
X6.4Y179.0
X6.4Y10.0
X7.2Y179.0
X7.2Y10.0
X8.0Y179.0
X8.0Y10.0
X9.5Y156.5
X9.5Y155.667
X9.5Y154.833
X9.5Y154.0
X9.5Y153.167
X9.5Y152.333
X9.5Y151.5
X9.5Y150.667
X9.5Y149.833
X9.5Y149.0
X9.5Y148.167
X9.5Y147.333
X9.5Y146.5
X9.5Y99.5
X9.5Y98.667
X9.5Y97.833
X9.5Y97.0
X9.5Y96.167
X9.5Y95.333
X9.5Y94.5
X9.5Y93.667
X9.5Y92.833
X9.5Y92.0
X9.5Y91.167
X9.5Y90.333
X9.5Y89.5
X9.5Y42.5
X9.5Y41.667
X9.5Y40.833
X9.5Y40.0
X9.5Y39.167
X9.5Y38.333
X9.5Y37.5
X9.5Y36.667
X9.5Y35.833
X9.5Y35.0
X9.5Y34.167
X9.5Y33.333
X9.5Y32.5
X10.0Y189.0
X10.0Y188.2
X10.0Y187.4
X10.0Y186.6
X10.0Y185.8
X10.0Y185.0
X10.0Y184.2
X10.0Y183.4
X10.0Y182.6
X10.0Y181.8
X10.0Y181.0
X10.0Y8.0
X10.0Y7.2
X10.0Y6.4
X10.0Y5.6
X10.0Y4.8
X10.0Y4.0
X10.0Y3.2
X10.0Y2.4
X10.0Y1.6
X10.0Y0.8
X10.0Y0.0
X33.333Y179.5
X33.333Y123.5
X33.333Y122.5
X33.333Y66.5
X33.333Y65.5
X33.333Y9.5
X34.166Y179.5
X34.166Y122.5
X34.166Y65.5
X34.166Y123.5
X34.166Y66.5
X34.166Y9.5
X35.0Y179.5
X35.0Y123.5
X35.0Y122.5
X35.0Y66.5
X35.0Y65.5
X35.0Y9.5
X35.833Y179.5
X35.833Y123.5
X35.833Y122.5
X35.833Y66.5
X35.833Y65.5
X35.833Y9.5
X36.666Y179.5
X36.666Y122.5
X36.666Y65.5
X36.666Y123.5
X36.666Y66.5
X36.666Y9.5
X37.5Y179.5
X37.5Y123.5
X37.5Y122.5
X37.5Y66.5
X37.5Y65.5
X37.5Y9.5
X38.333Y179.5
X38.333Y123.5
X38.333Y122.5
X38.333Y66.5
X38.333Y65.5
X38.333Y9.5
X39.166Y179.5
X39.166Y122.5
X39.166Y65.5
X39.166Y123.5
X39.166Y66.5
X39.166Y9.5
X40.0Y179.5
X40.0Y123.5
X40.0Y122.5
X40.0Y66.5
X40.0Y65.5
X40.0Y9.5
X40.833Y179.5
X40.833Y123.5
X40.833Y122.5
X40.833Y66.5
X40.833Y65.5
X40.833Y9.5
X41.666Y179.5
X41.666Y122.5
X41.666Y65.5
X41.666Y123.5
X41.666Y66.5
X41.666Y9.5
X42.5Y179.5
X42.5Y123.5
X42.5Y122.5
X42.5Y66.5
X42.5Y65.5
X42.5Y9.5
X43.333Y179.5
X43.333Y123.5
X43.333Y122.5
X43.333Y66.5
X43.333Y65.5
X43.333Y9.5
X61.666Y179.5
X61.666Y122.5
X61.666Y65.5
X61.666Y123.5
X61.666Y66.5
X61.666Y9.5
X62.499Y179.5
X62.499Y123.5
X62.499Y122.5
X62.499Y66.5
X62.499Y65.5
X62.499Y9.5
X63.333Y179.5
X63.333Y123.5
X63.333Y122.5
X63.333Y66.5
X63.333Y65.5
X63.333Y9.5
X64.166Y179.5
X64.166Y122.5
X64.166Y65.5
X64.166Y123.5
X64.166Y66.5
X64.166Y9.5
X64.999Y179.5
X64.999Y123.5
X64.999Y122.5
X64.999Y66.5
X64.999Y65.5
X64.999Y9.5
X65.833Y179.5
X65.833Y123.5
X65.833Y122.5
X65.833Y66.5
X65.833Y65.5
X65.833Y9.5
X66.666Y179.5
X66.666Y122.5
X66.666Y65.5
X66.666Y123.5
X66.666Y66.5
X66.666Y9.5
X67.499Y179.5
X67.499Y123.5
X67.499Y122.5
X67.499Y66.5
X67.499Y65.5
X67.499Y9.5
X68.333Y179.5
X68.333Y123.5
X68.333Y122.5
X68.333Y66.5
X68.333Y65.5
X68.333Y9.5
X69.166Y179.5
X69.166Y122.5
X69.166Y65.5
X69.166Y123.5
X69.166Y66.5
X69.166Y9.5
X69.999Y179.5
X69.999Y123.5
X69.999Y122.5
X69.999Y66.5
X69.999Y65.5
X69.999Y9.5
X70.833Y179.5
X70.833Y123.5
X70.833Y122.5
X70.833Y66.5
X70.833Y65.5
X70.833Y9.5
X71.666Y179.5
X71.666Y122.5
X71.666Y65.5
X71.666Y123.5
X71.666Y66.5
X71.666Y9.5
X95.477Y156.5
X95.477Y99.5
X95.477Y42.5
X95.477Y155.667
X95.477Y98.667
X95.477Y41.667
X95.478Y154.834
X95.478Y97.834
X95.478Y40.834
X95.479Y154.0
X95.479Y97.0
X95.479Y40.0
X95.479Y153.167
X95.479Y96.167
X95.479Y39.167
X95.48Y152.334
X95.48Y95.334
X95.48Y38.334
X95.48Y151.5
X95.48Y94.5
X95.48Y37.5
X95.481Y150.667
X95.481Y93.667
X95.481Y36.667
X95.482Y149.834
X95.482Y92.834
X95.482Y35.834
X95.482Y149.0
X95.482Y92.0
X95.482Y35.0
X95.483Y148.167
X95.483Y91.167
X95.483Y34.167
X95.484Y147.334
X95.484Y90.334
X95.484Y33.334
X95.484Y146.5
X95.484Y89.5
X95.484Y32.5
X96.499Y156.5
X96.499Y155.667
X96.499Y154.833
X96.499Y154.0
X96.499Y153.167
X96.499Y152.333
X96.499Y151.5
X96.499Y150.667
X96.499Y149.833
X96.499Y149.0
X96.499Y148.167
X96.499Y147.333
X96.499Y146.5
X96.499Y99.5
X96.499Y98.667
X96.499Y97.833
X96.499Y97.0
X96.499Y96.167
X96.499Y95.333
X96.499Y94.5
X96.499Y93.667
X96.499Y92.833
X96.499Y92.0
X96.499Y91.167
X96.499Y90.333
X96.499Y89.5
X96.499Y42.5
X96.499Y41.667
X96.499Y40.833
X96.499Y40.0
X96.499Y39.167
X96.499Y38.333
X96.499Y37.5
X96.499Y36.667
X96.499Y35.833
X96.499Y35.0
X96.499Y34.167
X96.499Y33.333
X96.499Y32.5
X120.332Y179.5
X120.332Y123.5
X120.332Y122.5
X120.332Y66.5
X120.332Y65.5
X120.332Y9.5
X121.165Y179.5
X121.165Y122.5
X121.165Y65.5
X121.165Y123.5
X121.165Y66.5
X121.165Y9.5
X121.999Y179.5
X121.999Y123.5
X121.999Y122.5
X121.999Y66.5
X121.999Y65.5
X121.999Y9.5
X122.832Y179.5
X122.832Y123.5
X122.832Y122.5
X122.832Y66.5
X122.832Y65.5
X122.832Y9.5
X123.665Y179.5
X123.665Y122.5
X123.665Y65.5
X123.665Y123.5
X123.665Y66.5
X123.665Y9.5
X124.499Y179.5
X124.499Y123.5
X124.499Y122.5
X124.499Y66.5
X124.499Y65.5
X124.499Y9.5
X125.332Y179.5
X125.332Y123.5
X125.332Y122.5
X125.332Y66.5
X125.332Y65.5
X125.332Y9.5
X126.165Y179.5
X126.165Y122.5
X126.165Y65.5
X126.165Y123.5
X126.165Y66.5
X126.165Y9.5
X126.999Y179.5
X126.999Y123.5
X126.999Y122.5
X126.999Y66.5
X126.999Y65.5
X126.999Y9.5
X127.832Y179.5
X127.832Y123.5
X127.832Y122.5
X127.832Y66.5
X127.832Y65.5
X127.832Y9.5
X128.665Y179.5
X128.665Y122.5
X128.665Y65.5
X128.665Y123.5
X128.665Y66.5
X128.665Y9.5
X129.499Y179.5
X129.499Y123.5
X129.499Y122.5
X129.499Y66.5
X129.499Y65.5
X129.499Y9.5
X130.332Y179.5
X130.332Y123.5
X130.332Y122.5
X130.332Y66.5
X130.332Y65.5
X130.332Y9.5
X148.665Y179.5
X148.665Y122.5
X148.665Y65.5
X148.665Y123.5
X148.665Y66.5
X148.665Y9.5
X149.498Y179.5
X149.498Y123.5
X149.498Y122.5
X149.498Y66.5
X149.498Y65.5
X149.498Y9.5
X150.332Y179.5
X150.332Y123.5
X150.332Y122.5
X150.332Y66.5
X150.332Y65.5
X150.332Y9.5
X151.165Y179.5
X151.165Y122.5
X151.165Y65.5
X151.165Y123.5
X151.165Y66.5
X151.165Y9.5
X151.998Y179.5
X151.998Y123.5
X151.998Y122.5
X151.998Y66.5
X151.998Y65.5
X151.998Y9.5
X152.832Y179.5
X152.832Y123.5
X152.832Y122.5
X152.832Y66.5
X152.832Y65.5
X152.832Y9.5
X153.665Y179.5
X153.665Y122.5
X153.665Y65.5
X153.665Y123.5
X153.665Y66.5
X153.665Y9.5
X154.498Y179.5
X154.498Y123.5
X154.498Y122.5
X154.498Y66.5
X154.498Y65.5
X154.498Y9.5
X155.332Y179.5
X155.332Y123.5
X155.332Y122.5
X155.332Y66.5
X155.332Y65.5
X155.332Y9.5
X156.165Y179.5
X156.165Y122.5
X156.165Y65.5
X156.165Y123.5
X156.165Y66.5
X156.165Y9.5
X156.998Y179.5
X156.998Y123.5
X156.998Y122.5
X156.998Y66.5
X156.998Y65.5
X156.998Y9.5
X157.832Y179.5
X157.832Y123.5
X157.832Y122.5
X157.832Y66.5
X157.832Y65.5
X157.832Y9.5
X158.665Y179.5
X158.665Y122.5
X158.665Y65.5
X158.665Y123.5
X158.665Y66.5
X158.665Y9.5
X181.998Y189.0
X181.998Y188.2
X181.998Y187.4
X181.998Y186.6
X181.998Y185.8
X181.998Y185.0
X181.998Y184.2
X181.998Y183.4
X181.998Y182.6
X181.998Y181.8
X181.998Y181.0
X181.998Y8.0
X181.998Y7.2
X181.998Y6.4
X181.998Y5.6
X181.998Y4.8
X181.998Y4.0
X181.998Y3.2
X181.998Y2.4
X181.998Y1.6
X181.998Y0.8
X181.998Y0.0
X182.476Y156.5
X182.476Y99.5
X182.476Y42.5
X182.476Y155.667
X182.476Y98.667
X182.476Y41.667
X182.477Y154.834
X182.477Y97.834
X182.477Y40.834
X182.478Y154.0
X182.478Y97.0
X182.478Y40.0
X182.478Y153.167
X182.478Y96.167
X182.478Y39.167
X182.479Y152.334
X182.479Y95.334
X182.479Y38.334
X182.48Y151.5
X182.48Y94.5
X182.48Y37.5
X182.48Y150.667
X182.48Y93.667
X182.48Y36.667
X182.481Y149.834
X182.481Y92.834
X182.481Y35.834
X182.481Y149.0
X182.481Y92.0
X182.481Y35.0
X182.482Y148.167
X182.482Y91.167
X182.482Y34.167
X182.483Y147.334
X182.483Y90.334
X182.483Y33.334
X182.483Y146.5
X182.483Y89.5
X182.483Y32.5
X183.998Y179.0
X183.998Y10.0
X184.798Y179.0
X184.798Y10.0
X185.598Y179.0
X185.598Y10.0
X186.398Y179.0
X186.398Y10.0
X187.198Y179.0
X187.198Y10.0
X187.998Y179.0
X187.998Y10.0
X188.798Y179.0
X188.798Y10.0
X189.598Y179.0
X189.598Y10.0
X190.398Y179.0
X190.398Y10.0
X191.198Y179.0
X191.198Y10.0
X191.998Y179.0
X191.998Y10.0
M30
