%TF.GenerationSoftware,KiCad,Pcbnew,9.0.1*%
%TF.CreationDate,2026-01-27T16:11:31-05:00*%
%TF.ProjectId,PCBussinesCard_panel,50434275-7373-4696-9e65-73436172645f,rev?*%
%TF.SameCoordinates,PX32119daPYc751640*%
%TF.FileFunction,Paste,Top*%
%TF.FilePolarity,Positive*%
%FSLAX46Y46*%
G04 Gerber Fmt 4.6, Leading zero omitted, Abs format (unit mm)*
G04 Created by KiCad (PCBNEW 9.0.1) date 2026-01-27 16:11:31*
%MOMM*%
%LPD*%
G01*
G04 APERTURE LIST*
G04 Aperture macros list*
%AMRoundRect*
0 Rectangle with rounded corners*
0 $1 Rounding radius*
0 $2 $3 $4 $5 $6 $7 $8 $9 X,Y pos of 4 corners*
0 Add a 4 corners polygon primitive as box body*
4,1,4,$2,$3,$4,$5,$6,$7,$8,$9,$2,$3,0*
0 Add four circle primitives for the rounded corners*
1,1,$1+$1,$2,$3*
1,1,$1+$1,$4,$5*
1,1,$1+$1,$6,$7*
1,1,$1+$1,$8,$9*
0 Add four rect primitives between the rounded corners*
20,1,$1+$1,$2,$3,$4,$5,0*
20,1,$1+$1,$4,$5,$6,$7,0*
20,1,$1+$1,$6,$7,$8,$9,0*
20,1,$1+$1,$8,$9,$2,$3,0*%
G04 Aperture macros list end*
%ADD10RoundRect,0.140000X0.021213X-0.219203X0.219203X-0.021213X-0.021213X0.219203X-0.219203X0.021213X0*%
%ADD11RoundRect,0.172500X-0.042426X-0.286378X0.286378X0.042426X0.042426X0.286378X-0.286378X-0.042426X0*%
%ADD12RoundRect,0.075000X-0.121976X-0.228042X0.228042X0.121976X0.121976X0.228042X-0.228042X-0.121976X0*%
%ADD13RoundRect,0.140000X0.219203X0.021213X0.021213X0.219203X-0.219203X-0.021213X-0.021213X-0.219203X0*%
%ADD14RoundRect,0.125000X0.035355X0.212132X-0.212132X-0.035355X-0.035355X-0.212132X0.212132X0.035355X0*%
%ADD15R,0.300000X0.750000*%
%ADD16R,1.050000X0.850000*%
%ADD17RoundRect,0.140000X-0.021213X0.219203X-0.219203X0.021213X0.021213X-0.219203X0.219203X-0.021213X0*%
%ADD18RoundRect,0.218750X0.026517X-0.335876X0.335876X-0.026517X-0.026517X0.335876X-0.335876X0.026517X0*%
%ADD19RoundRect,0.075000X-0.415425X-0.521491X0.521491X0.415425X0.415425X0.521491X-0.521491X-0.415425X0*%
%ADD20RoundRect,0.075000X0.415425X-0.521491X0.521491X-0.415425X-0.415425X0.521491X-0.521491X0.415425X0*%
%ADD21RoundRect,0.200000X0.053033X-0.335876X0.335876X-0.053033X-0.053033X0.335876X-0.335876X0.053033X0*%
G04 APERTURE END LIST*
D10*
%TO.C,C2*%
X165699636Y89690589D03*
X166378458Y90369411D03*
%TD*%
D11*
%TO.C,U2*%
X169805874Y52513934D03*
X170406914Y51912894D03*
D12*
X168920222Y51946481D03*
X169379842Y51486862D03*
X169839461Y51027242D03*
X171292566Y52480347D03*
X170832946Y52939966D03*
X170373327Y53399586D03*
%TD*%
D11*
%TO.C,U2*%
X82806827Y52513934D03*
X83407867Y51912894D03*
D12*
X81921175Y51946481D03*
X82380795Y51486862D03*
X82840414Y51027242D03*
X84293519Y52480347D03*
X83833899Y52939966D03*
X83374280Y53399586D03*
%TD*%
D13*
%TO.C,C3*%
X153588458Y89810589D03*
X152909636Y90489411D03*
%TD*%
D14*
%TO.C,D1*%
X172599047Y164260000D03*
X171891940Y164967107D03*
X171326255Y163694315D03*
%TD*%
%TO.C,D1*%
X172599047Y50260000D03*
X171891940Y50967107D03*
X171326255Y49694315D03*
%TD*%
D15*
%TO.C,IC1*%
X49162500Y25550000D03*
X49662500Y25550000D03*
X49662500Y27550000D03*
X49162500Y27550000D03*
D16*
X49412500Y26550000D03*
%TD*%
D13*
%TO.C,C1*%
X161868458Y41020589D03*
X161189636Y41699411D03*
%TD*%
D17*
%TO.C,C4*%
X66389411Y37249411D03*
X65710589Y36570589D03*
%TD*%
D13*
%TO.C,C5*%
X68610000Y143230000D03*
X67931178Y143908822D03*
%TD*%
%TO.C,C1*%
X161868458Y155020589D03*
X161189636Y155699411D03*
%TD*%
D18*
%TO.C,D2*%
X79671020Y168386047D03*
X80784714Y169499741D03*
%TD*%
D13*
%TO.C,C1*%
X74869411Y41020589D03*
X74190589Y41699411D03*
%TD*%
D10*
%TO.C,C2*%
X165699636Y32690589D03*
X166378458Y33369411D03*
%TD*%
D14*
%TO.C,D1*%
X85600000Y107260000D03*
X84892893Y107967107D03*
X84327208Y106694315D03*
%TD*%
D10*
%TO.C,C2*%
X78700589Y32690589D03*
X79379411Y33369411D03*
%TD*%
D13*
%TO.C,C1*%
X161868458Y98020589D03*
X161189636Y98699411D03*
%TD*%
D14*
%TO.C,D1*%
X172599047Y107260000D03*
X171891940Y107967107D03*
X171326255Y106694315D03*
%TD*%
D15*
%TO.C,IC1*%
X136161547Y139550000D03*
X136661547Y139550000D03*
X136661547Y141550000D03*
X136161547Y141550000D03*
D16*
X136411547Y140550000D03*
%TD*%
D14*
%TO.C,D1*%
X85600000Y164260000D03*
X84892893Y164967107D03*
X84327208Y163694315D03*
%TD*%
D19*
%TO.C,U1*%
X67742124Y147901212D03*
X68095678Y147547658D03*
X68449231Y147194105D03*
X68802785Y146840551D03*
X69156338Y146486998D03*
X69509891Y146133445D03*
X69863445Y145779891D03*
X70216998Y145426338D03*
X70570551Y145072785D03*
X70924105Y144719231D03*
X71277658Y144365678D03*
X71631212Y144012124D03*
D20*
X73628788Y144012124D03*
X73982342Y144365678D03*
X74335895Y144719231D03*
X74689449Y145072785D03*
X75043002Y145426338D03*
X75396555Y145779891D03*
X75750109Y146133445D03*
X76103662Y146486998D03*
X76457215Y146840551D03*
X76810769Y147194105D03*
X77164322Y147547658D03*
X77517876Y147901212D03*
D19*
X77517876Y149898788D03*
X77164322Y150252342D03*
X76810769Y150605895D03*
X76457215Y150959449D03*
X76103662Y151313002D03*
X75750109Y151666555D03*
X75396555Y152020109D03*
X75043002Y152373662D03*
X74689449Y152727215D03*
X74335895Y153080769D03*
X73982342Y153434322D03*
X73628788Y153787876D03*
D20*
X71631212Y153787876D03*
X71277658Y153434322D03*
X70924105Y153080769D03*
X70570551Y152727215D03*
X70216998Y152373662D03*
X69863445Y152020109D03*
X69509891Y151666555D03*
X69156338Y151313002D03*
X68802785Y150959449D03*
X68449231Y150605895D03*
X68095678Y150252342D03*
X67742124Y149898788D03*
%TD*%
D13*
%TO.C,C3*%
X153588458Y32810589D03*
X152909636Y33489411D03*
%TD*%
D21*
%TO.C,R1*%
X80844504Y110159531D03*
X82011230Y111326257D03*
%TD*%
D13*
%TO.C,C3*%
X153588458Y146810589D03*
X152909636Y147489411D03*
%TD*%
D18*
%TO.C,D2*%
X166670067Y54386047D03*
X167783761Y55499741D03*
%TD*%
D13*
%TO.C,C6*%
X69299411Y29950589D03*
X68620589Y30629411D03*
%TD*%
D17*
%TO.C,C4*%
X66389411Y94249411D03*
X65710589Y93570589D03*
%TD*%
D19*
%TO.C,U1*%
X154741171Y147901212D03*
X155094725Y147547658D03*
X155448278Y147194105D03*
X155801832Y146840551D03*
X156155385Y146486998D03*
X156508938Y146133445D03*
X156862492Y145779891D03*
X157216045Y145426338D03*
X157569598Y145072785D03*
X157923152Y144719231D03*
X158276705Y144365678D03*
X158630259Y144012124D03*
D20*
X160627835Y144012124D03*
X160981389Y144365678D03*
X161334942Y144719231D03*
X161688496Y145072785D03*
X162042049Y145426338D03*
X162395602Y145779891D03*
X162749156Y146133445D03*
X163102709Y146486998D03*
X163456262Y146840551D03*
X163809816Y147194105D03*
X164163369Y147547658D03*
X164516923Y147901212D03*
D19*
X164516923Y149898788D03*
X164163369Y150252342D03*
X163809816Y150605895D03*
X163456262Y150959449D03*
X163102709Y151313002D03*
X162749156Y151666555D03*
X162395602Y152020109D03*
X162042049Y152373662D03*
X161688496Y152727215D03*
X161334942Y153080769D03*
X160981389Y153434322D03*
X160627835Y153787876D03*
D20*
X158630259Y153787876D03*
X158276705Y153434322D03*
X157923152Y153080769D03*
X157569598Y152727215D03*
X157216045Y152373662D03*
X156862492Y152020109D03*
X156508938Y151666555D03*
X156155385Y151313002D03*
X155801832Y150959449D03*
X155448278Y150605895D03*
X155094725Y150252342D03*
X154741171Y149898788D03*
%TD*%
D13*
%TO.C,C5*%
X68610000Y86230000D03*
X67931178Y86908822D03*
%TD*%
D11*
%TO.C,U2*%
X169805874Y109513934D03*
X170406914Y108912894D03*
D12*
X168920222Y108946481D03*
X169379842Y108486862D03*
X169839461Y108027242D03*
X171292566Y109480347D03*
X170832946Y109939966D03*
X170373327Y110399586D03*
%TD*%
D15*
%TO.C,IC1*%
X136161547Y82550000D03*
X136661547Y82550000D03*
X136661547Y84550000D03*
X136161547Y84550000D03*
D16*
X136411547Y83550000D03*
%TD*%
D15*
%TO.C,IC1*%
X136161547Y25550000D03*
X136661547Y25550000D03*
X136661547Y27550000D03*
X136161547Y27550000D03*
D16*
X136411547Y26550000D03*
%TD*%
D21*
%TO.C,R1*%
X167843551Y110159531D03*
X169010277Y111326257D03*
%TD*%
D17*
%TO.C,C4*%
X153388458Y37249411D03*
X152709636Y36570589D03*
%TD*%
D13*
%TO.C,C3*%
X66589411Y146810589D03*
X65910589Y147489411D03*
%TD*%
D19*
%TO.C,U1*%
X154741171Y90901212D03*
X155094725Y90547658D03*
X155448278Y90194105D03*
X155801832Y89840551D03*
X156155385Y89486998D03*
X156508938Y89133445D03*
X156862492Y88779891D03*
X157216045Y88426338D03*
X157569598Y88072785D03*
X157923152Y87719231D03*
X158276705Y87365678D03*
X158630259Y87012124D03*
D20*
X160627835Y87012124D03*
X160981389Y87365678D03*
X161334942Y87719231D03*
X161688496Y88072785D03*
X162042049Y88426338D03*
X162395602Y88779891D03*
X162749156Y89133445D03*
X163102709Y89486998D03*
X163456262Y89840551D03*
X163809816Y90194105D03*
X164163369Y90547658D03*
X164516923Y90901212D03*
D19*
X164516923Y92898788D03*
X164163369Y93252342D03*
X163809816Y93605895D03*
X163456262Y93959449D03*
X163102709Y94313002D03*
X162749156Y94666555D03*
X162395602Y95020109D03*
X162042049Y95373662D03*
X161688496Y95727215D03*
X161334942Y96080769D03*
X160981389Y96434322D03*
X160627835Y96787876D03*
D20*
X158630259Y96787876D03*
X158276705Y96434322D03*
X157923152Y96080769D03*
X157569598Y95727215D03*
X157216045Y95373662D03*
X156862492Y95020109D03*
X156508938Y94666555D03*
X156155385Y94313002D03*
X155801832Y93959449D03*
X155448278Y93605895D03*
X155094725Y93252342D03*
X154741171Y92898788D03*
%TD*%
D13*
%TO.C,C6*%
X156298458Y143950589D03*
X155619636Y144629411D03*
%TD*%
%TO.C,C5*%
X155609047Y86230000D03*
X154930225Y86908822D03*
%TD*%
D11*
%TO.C,U2*%
X82806827Y166513934D03*
X83407867Y165912894D03*
D12*
X81921175Y165946481D03*
X82380795Y165486862D03*
X82840414Y165027242D03*
X84293519Y166480347D03*
X83833899Y166939966D03*
X83374280Y167399586D03*
%TD*%
D21*
%TO.C,R1*%
X80844504Y167159531D03*
X82011230Y168326257D03*
%TD*%
D11*
%TO.C,U2*%
X82806827Y109513934D03*
X83407867Y108912894D03*
D12*
X81921175Y108946481D03*
X82380795Y108486862D03*
X82840414Y108027242D03*
X84293519Y109480347D03*
X83833899Y109939966D03*
X83374280Y110399586D03*
%TD*%
D15*
%TO.C,IC1*%
X49162500Y82550000D03*
X49662500Y82550000D03*
X49662500Y84550000D03*
X49162500Y84550000D03*
D16*
X49412500Y83550000D03*
%TD*%
D13*
%TO.C,C3*%
X66589411Y89810589D03*
X65910589Y90489411D03*
%TD*%
D18*
%TO.C,D2*%
X79671020Y54386047D03*
X80784714Y55499741D03*
%TD*%
%TO.C,D2*%
X79671020Y111386047D03*
X80784714Y112499741D03*
%TD*%
D13*
%TO.C,C6*%
X69299411Y143950589D03*
X68620589Y144629411D03*
%TD*%
D10*
%TO.C,C2*%
X78700589Y146690589D03*
X79379411Y147369411D03*
%TD*%
D17*
%TO.C,C4*%
X153388458Y94249411D03*
X152709636Y93570589D03*
%TD*%
%TO.C,C4*%
X66389411Y151249411D03*
X65710589Y150570589D03*
%TD*%
D13*
%TO.C,C1*%
X74869411Y155020589D03*
X74190589Y155699411D03*
%TD*%
%TO.C,C6*%
X156298458Y86950589D03*
X155619636Y87629411D03*
%TD*%
D19*
%TO.C,U1*%
X67742124Y33901212D03*
X68095678Y33547658D03*
X68449231Y33194105D03*
X68802785Y32840551D03*
X69156338Y32486998D03*
X69509891Y32133445D03*
X69863445Y31779891D03*
X70216998Y31426338D03*
X70570551Y31072785D03*
X70924105Y30719231D03*
X71277658Y30365678D03*
X71631212Y30012124D03*
D20*
X73628788Y30012124D03*
X73982342Y30365678D03*
X74335895Y30719231D03*
X74689449Y31072785D03*
X75043002Y31426338D03*
X75396555Y31779891D03*
X75750109Y32133445D03*
X76103662Y32486998D03*
X76457215Y32840551D03*
X76810769Y33194105D03*
X77164322Y33547658D03*
X77517876Y33901212D03*
D19*
X77517876Y35898788D03*
X77164322Y36252342D03*
X76810769Y36605895D03*
X76457215Y36959449D03*
X76103662Y37313002D03*
X75750109Y37666555D03*
X75396555Y38020109D03*
X75043002Y38373662D03*
X74689449Y38727215D03*
X74335895Y39080769D03*
X73982342Y39434322D03*
X73628788Y39787876D03*
D20*
X71631212Y39787876D03*
X71277658Y39434322D03*
X70924105Y39080769D03*
X70570551Y38727215D03*
X70216998Y38373662D03*
X69863445Y38020109D03*
X69509891Y37666555D03*
X69156338Y37313002D03*
X68802785Y36959449D03*
X68449231Y36605895D03*
X68095678Y36252342D03*
X67742124Y35898788D03*
%TD*%
D19*
%TO.C,U1*%
X154741171Y33901212D03*
X155094725Y33547658D03*
X155448278Y33194105D03*
X155801832Y32840551D03*
X156155385Y32486998D03*
X156508938Y32133445D03*
X156862492Y31779891D03*
X157216045Y31426338D03*
X157569598Y31072785D03*
X157923152Y30719231D03*
X158276705Y30365678D03*
X158630259Y30012124D03*
D20*
X160627835Y30012124D03*
X160981389Y30365678D03*
X161334942Y30719231D03*
X161688496Y31072785D03*
X162042049Y31426338D03*
X162395602Y31779891D03*
X162749156Y32133445D03*
X163102709Y32486998D03*
X163456262Y32840551D03*
X163809816Y33194105D03*
X164163369Y33547658D03*
X164516923Y33901212D03*
D19*
X164516923Y35898788D03*
X164163369Y36252342D03*
X163809816Y36605895D03*
X163456262Y36959449D03*
X163102709Y37313002D03*
X162749156Y37666555D03*
X162395602Y38020109D03*
X162042049Y38373662D03*
X161688496Y38727215D03*
X161334942Y39080769D03*
X160981389Y39434322D03*
X160627835Y39787876D03*
D20*
X158630259Y39787876D03*
X158276705Y39434322D03*
X157923152Y39080769D03*
X157569598Y38727215D03*
X157216045Y38373662D03*
X156862492Y38020109D03*
X156508938Y37666555D03*
X156155385Y37313002D03*
X155801832Y36959449D03*
X155448278Y36605895D03*
X155094725Y36252342D03*
X154741171Y35898788D03*
%TD*%
D13*
%TO.C,C5*%
X155609047Y143230000D03*
X154930225Y143908822D03*
%TD*%
D10*
%TO.C,C2*%
X165699636Y146690589D03*
X166378458Y147369411D03*
%TD*%
D18*
%TO.C,D2*%
X166670067Y111386047D03*
X167783761Y112499741D03*
%TD*%
D21*
%TO.C,R1*%
X167843551Y167159531D03*
X169010277Y168326257D03*
%TD*%
D13*
%TO.C,C5*%
X68610000Y29230000D03*
X67931178Y29908822D03*
%TD*%
D19*
%TO.C,U1*%
X67742124Y90901212D03*
X68095678Y90547658D03*
X68449231Y90194105D03*
X68802785Y89840551D03*
X69156338Y89486998D03*
X69509891Y89133445D03*
X69863445Y88779891D03*
X70216998Y88426338D03*
X70570551Y88072785D03*
X70924105Y87719231D03*
X71277658Y87365678D03*
X71631212Y87012124D03*
D20*
X73628788Y87012124D03*
X73982342Y87365678D03*
X74335895Y87719231D03*
X74689449Y88072785D03*
X75043002Y88426338D03*
X75396555Y88779891D03*
X75750109Y89133445D03*
X76103662Y89486998D03*
X76457215Y89840551D03*
X76810769Y90194105D03*
X77164322Y90547658D03*
X77517876Y90901212D03*
D19*
X77517876Y92898788D03*
X77164322Y93252342D03*
X76810769Y93605895D03*
X76457215Y93959449D03*
X76103662Y94313002D03*
X75750109Y94666555D03*
X75396555Y95020109D03*
X75043002Y95373662D03*
X74689449Y95727215D03*
X74335895Y96080769D03*
X73982342Y96434322D03*
X73628788Y96787876D03*
D20*
X71631212Y96787876D03*
X71277658Y96434322D03*
X70924105Y96080769D03*
X70570551Y95727215D03*
X70216998Y95373662D03*
X69863445Y95020109D03*
X69509891Y94666555D03*
X69156338Y94313002D03*
X68802785Y93959449D03*
X68449231Y93605895D03*
X68095678Y93252342D03*
X67742124Y92898788D03*
%TD*%
D21*
%TO.C,R1*%
X80844504Y53159531D03*
X82011230Y54326257D03*
%TD*%
%TO.C,R1*%
X167843551Y53159531D03*
X169010277Y54326257D03*
%TD*%
D11*
%TO.C,U2*%
X169805874Y166513934D03*
X170406914Y165912894D03*
D12*
X168920222Y165946481D03*
X169379842Y165486862D03*
X169839461Y165027242D03*
X171292566Y166480347D03*
X170832946Y166939966D03*
X170373327Y167399586D03*
%TD*%
D15*
%TO.C,IC1*%
X49162500Y139550000D03*
X49662500Y139550000D03*
X49662500Y141550000D03*
X49162500Y141550000D03*
D16*
X49412500Y140550000D03*
%TD*%
D13*
%TO.C,C6*%
X156298458Y29950589D03*
X155619636Y30629411D03*
%TD*%
%TO.C,C3*%
X66589411Y32810589D03*
X65910589Y33489411D03*
%TD*%
D18*
%TO.C,D2*%
X166670067Y168386047D03*
X167783761Y169499741D03*
%TD*%
D13*
%TO.C,C6*%
X69299411Y86950589D03*
X68620589Y87629411D03*
%TD*%
D10*
%TO.C,C2*%
X78700589Y89690589D03*
X79379411Y90369411D03*
%TD*%
D13*
%TO.C,C1*%
X74869411Y98020589D03*
X74190589Y98699411D03*
%TD*%
D14*
%TO.C,D1*%
X85600000Y50260000D03*
X84892893Y50967107D03*
X84327208Y49694315D03*
%TD*%
D17*
%TO.C,C4*%
X153388458Y151249411D03*
X152709636Y150570589D03*
%TD*%
D13*
%TO.C,C5*%
X155609047Y29230000D03*
X154930225Y29908822D03*
%TD*%
M02*
