%TF.GenerationSoftware,KiCad,Pcbnew,9.0.1*%
%TF.CreationDate,2026-01-27T16:11:31-05:00*%
%TF.ProjectId,PCBussinesCard_panel,50434275-7373-4696-9e65-73436172645f,rev?*%
%TF.SameCoordinates,PX32119daPYc751640*%
%TF.FileFunction,Paste,Bot*%
%TF.FilePolarity,Positive*%
%FSLAX46Y46*%
G04 Gerber Fmt 4.6, Leading zero omitted, Abs format (unit mm)*
G04 Created by KiCad (PCBNEW 9.0.1) date 2026-01-27 16:11:31*
%MOMM*%
%LPD*%
G01*
G04 APERTURE LIST*
G04 Aperture macros list*
%AMRoundRect*
0 Rectangle with rounded corners*
0 $1 Rounding radius*
0 $2 $3 $4 $5 $6 $7 $8 $9 X,Y pos of 4 corners*
0 Add a 4 corners polygon primitive as box body*
4,1,4,$2,$3,$4,$5,$6,$7,$8,$9,$2,$3,0*
0 Add four circle primitives for the rounded corners*
1,1,$1+$1,$2,$3*
1,1,$1+$1,$4,$5*
1,1,$1+$1,$6,$7*
1,1,$1+$1,$8,$9*
0 Add four rect primitives between the rounded corners*
20,1,$1+$1,$2,$3,$4,$5,0*
20,1,$1+$1,$4,$5,$6,$7,0*
20,1,$1+$1,$6,$7,$8,$9,0*
20,1,$1+$1,$8,$9,$2,$3,0*%
G04 Aperture macros list end*
%ADD10RoundRect,0.250000X-0.625000X0.312500X-0.625000X-0.312500X0.625000X-0.312500X0.625000X0.312500X0*%
%ADD11RoundRect,0.250000X0.335000X-0.335000X0.335000X0.335000X-0.335000X0.335000X-0.335000X-0.335000X0*%
%ADD12RoundRect,0.050000X0.050000X-0.300000X0.050000X0.300000X-0.050000X0.300000X-0.050000X-0.300000X0*%
%ADD13RoundRect,0.050000X0.300000X-0.050000X0.300000X0.050000X-0.300000X0.050000X-0.300000X-0.050000X0*%
%ADD14RoundRect,0.249999X-1.075001X0.450001X-1.075001X-0.450001X1.075001X-0.450001X1.075001X0.450001X0*%
%ADD15RoundRect,0.150000X0.512500X0.150000X-0.512500X0.150000X-0.512500X-0.150000X0.512500X-0.150000X0*%
%ADD16RoundRect,0.375000X-0.375000X0.625000X-0.375000X-0.625000X0.375000X-0.625000X0.375000X0.625000X0*%
%ADD17RoundRect,0.500000X-1.400000X0.500000X-1.400000X-0.500000X1.400000X-0.500000X1.400000X0.500000X0*%
%ADD18RoundRect,0.250000X-1.450000X0.312500X-1.450000X-0.312500X1.450000X-0.312500X1.450000X0.312500X0*%
%ADD19RoundRect,0.075000X0.075000X-0.675000X0.075000X0.675000X-0.075000X0.675000X-0.075000X-0.675000X0*%
%ADD20RoundRect,0.075000X0.675000X-0.075000X0.675000X0.075000X-0.675000X0.075000X-0.675000X-0.075000X0*%
%ADD21RoundRect,0.250001X-2.399999X0.487499X-2.399999X-0.487499X2.399999X-0.487499X2.399999X0.487499X0*%
%ADD22RoundRect,0.249999X0.420001X-0.395001X0.420001X0.395001X-0.420001X0.395001X-0.420001X-0.395001X0*%
%ADD23RoundRect,0.100000X0.100000X-0.650000X0.100000X0.650000X-0.100000X0.650000X-0.100000X-0.650000X0*%
%ADD24RoundRect,0.172500X0.172500X-0.172500X0.172500X0.172500X-0.172500X0.172500X-0.172500X-0.172500X0*%
%ADD25RoundRect,0.062500X0.062500X-0.350000X0.062500X0.350000X-0.062500X0.350000X-0.062500X-0.350000X0*%
%ADD26RoundRect,0.062500X0.350000X-0.062500X0.350000X0.062500X-0.350000X0.062500X-0.350000X-0.062500X0*%
%ADD27RoundRect,0.250001X-1.974999X1.262499X-1.974999X-1.262499X1.974999X-1.262499X1.974999X1.262499X0*%
%ADD28RoundRect,0.079500X-0.100500X0.079500X-0.100500X-0.079500X0.100500X-0.079500X0.100500X0.079500X0*%
%ADD29RoundRect,0.125000X0.125000X-0.625000X0.125000X0.625000X-0.125000X0.625000X-0.125000X-0.625000X0*%
%ADD30RoundRect,0.125000X0.625000X-0.125000X0.625000X0.125000X-0.625000X0.125000X-0.625000X-0.125000X0*%
%ADD31RoundRect,0.250001X0.354999X-0.354999X0.354999X0.354999X-0.354999X0.354999X-0.354999X-0.354999X0*%
%ADD32RoundRect,0.100000X0.100000X-0.675000X0.100000X0.675000X-0.100000X0.675000X-0.100000X-0.675000X0*%
%ADD33RoundRect,0.200000X-0.275000X0.200000X-0.275000X-0.200000X0.275000X-0.200000X0.275000X0.200000X0*%
%ADD34RoundRect,0.250000X-1.425000X0.362500X-1.425000X-0.362500X1.425000X-0.362500X1.425000X0.362500X0*%
%ADD35RoundRect,0.250000X-0.450000X0.262500X-0.450000X-0.262500X0.450000X-0.262500X0.450000X0.262500X0*%
%ADD36RoundRect,0.135000X-0.185000X0.135000X-0.185000X-0.135000X0.185000X-0.135000X0.185000X0.135000X0*%
G04 APERTURE END LIST*
D10*
%TO.C,1206*%
X52221111Y172682500D03*
X52221111Y169757500D03*
%TD*%
D11*
%TO.C,QFN-32 *%
X147813047Y131105000D03*
X149263047Y131105000D03*
X147813047Y132555000D03*
X149263047Y132555000D03*
D12*
X149938047Y129830000D03*
X149538047Y129830000D03*
X149138047Y129830000D03*
X148738047Y129830000D03*
X148338047Y129830000D03*
X147938047Y129830000D03*
X147538047Y129830000D03*
X147138047Y129830000D03*
D13*
X146538047Y130430000D03*
X146538047Y130830000D03*
X146538047Y131230000D03*
X146538047Y131630000D03*
X146538047Y132030000D03*
X146538047Y132430000D03*
X146538047Y132830000D03*
X146538047Y133230000D03*
D12*
X147138047Y133830000D03*
X147538047Y133830000D03*
X147938047Y133830000D03*
X148338047Y133830000D03*
X148738047Y133830000D03*
X149138047Y133830000D03*
X149538047Y133830000D03*
X149938047Y133830000D03*
D13*
X150538047Y133230000D03*
X150538047Y132830000D03*
X150538047Y132430000D03*
X150538047Y132030000D03*
X150538047Y131630000D03*
X150538047Y131230000D03*
X150538047Y130830000D03*
X150538047Y130430000D03*
%TD*%
D14*
%TO.C,2010*%
X38526667Y59620000D03*
X38526667Y54820000D03*
%TD*%
D10*
%TO.C,1206*%
X139220158Y58682500D03*
X139220158Y55757500D03*
%TD*%
D15*
%TO.C,SOT-23-3*%
X144029047Y95970000D03*
X144029047Y94070000D03*
X141754047Y95020000D03*
%TD*%
D16*
%TO.C,SOT-223*%
X144839047Y31830000D03*
X147139047Y31830000D03*
X149439047Y31830000D03*
D17*
X147139047Y25530000D03*
%TD*%
D18*
%TO.C,1812*%
X132597936Y116357500D03*
X132597936Y112082500D03*
%TD*%
D19*
%TO.C,LQFP-32 0.5*%
X139933547Y14655000D03*
X139433547Y14655000D03*
X138933547Y14655000D03*
X138433547Y14655000D03*
X137933547Y14655000D03*
X137433547Y14655000D03*
X136933547Y14655000D03*
X136433547Y14655000D03*
D20*
X135008547Y16080000D03*
X135008547Y16580000D03*
X135008547Y17080000D03*
X135008547Y17580000D03*
X135008547Y18080000D03*
X135008547Y18580000D03*
X135008547Y19080000D03*
X135008547Y19580000D03*
D19*
X136433547Y21005000D03*
X136933547Y21005000D03*
X137433547Y21005000D03*
X137933547Y21005000D03*
X138433547Y21005000D03*
X138933547Y21005000D03*
X139433547Y21005000D03*
X139933547Y21005000D03*
D20*
X141358547Y19580000D03*
X141358547Y19080000D03*
X141358547Y18580000D03*
X141358547Y18080000D03*
X141358547Y17580000D03*
X141358547Y17080000D03*
X141358547Y16580000D03*
X141358547Y16080000D03*
%TD*%
D21*
%TO.C,4020*%
X14600000Y62032500D03*
X14600000Y52407500D03*
%TD*%
D22*
%TO.C,TSSOP-24*%
X101560047Y131215000D03*
X103230047Y131215000D03*
X104900047Y131215000D03*
X101560047Y132815000D03*
X103230047Y132815000D03*
X104900047Y132815000D03*
D23*
X106805047Y129140000D03*
X106155047Y129140000D03*
X105505047Y129140000D03*
X104855047Y129140000D03*
X104205047Y129140000D03*
X103555047Y129140000D03*
X102905047Y129140000D03*
X102255047Y129140000D03*
X101605047Y129140000D03*
X100955047Y129140000D03*
X100305047Y129140000D03*
X99655047Y129140000D03*
X99655047Y134890000D03*
X100305047Y134890000D03*
X100955047Y134890000D03*
X101605047Y134890000D03*
X102255047Y134890000D03*
X102905047Y134890000D03*
X103555047Y134890000D03*
X104205047Y134890000D03*
X104855047Y134890000D03*
X105505047Y134890000D03*
X106155047Y134890000D03*
X106805047Y134890000D03*
%TD*%
D24*
%TO.C,QFN-16*%
X156417547Y17405000D03*
X157267547Y17405000D03*
X156417547Y18255000D03*
X157267547Y18255000D03*
D25*
X157592547Y16367500D03*
X157092547Y16367500D03*
X156592547Y16367500D03*
X156092547Y16367500D03*
D26*
X155380047Y17080000D03*
X155380047Y17580000D03*
X155380047Y18080000D03*
X155380047Y18580000D03*
D25*
X156092547Y19292500D03*
X156592547Y19292500D03*
X157092547Y19292500D03*
X157592547Y19292500D03*
D26*
X158305047Y18580000D03*
X158305047Y18080000D03*
X158305047Y17580000D03*
X158305047Y17080000D03*
%TD*%
D27*
%TO.C,2816*%
X110521269Y173732500D03*
X110521269Y168707500D03*
%TD*%
D22*
%TO.C,TSSOP-24*%
X14561000Y131215000D03*
X16231000Y131215000D03*
X17901000Y131215000D03*
X14561000Y132815000D03*
X16231000Y132815000D03*
X17901000Y132815000D03*
D23*
X19806000Y129140000D03*
X19156000Y129140000D03*
X18506000Y129140000D03*
X17856000Y129140000D03*
X17206000Y129140000D03*
X16556000Y129140000D03*
X15906000Y129140000D03*
X15256000Y129140000D03*
X14606000Y129140000D03*
X13956000Y129140000D03*
X13306000Y129140000D03*
X12656000Y129140000D03*
X12656000Y134890000D03*
X13306000Y134890000D03*
X13956000Y134890000D03*
X14606000Y134890000D03*
X15256000Y134890000D03*
X15906000Y134890000D03*
X16556000Y134890000D03*
X17206000Y134890000D03*
X17856000Y134890000D03*
X18506000Y134890000D03*
X19156000Y134890000D03*
X19806000Y134890000D03*
%TD*%
D10*
%TO.C,1206*%
X139220158Y115682500D03*
X139220158Y112757500D03*
%TD*%
D28*
%TO.C,0201*%
X159169047Y57565000D03*
X159169047Y56875000D03*
%TD*%
D16*
%TO.C,SOT-223*%
X144839047Y145830000D03*
X147139047Y145830000D03*
X149439047Y145830000D03*
D17*
X147139047Y139530000D03*
%TD*%
D22*
%TO.C,TSSOP-24*%
X101560047Y17215000D03*
X103230047Y17215000D03*
X104900047Y17215000D03*
X101560047Y18815000D03*
X103230047Y18815000D03*
X104900047Y18815000D03*
D23*
X106805047Y15140000D03*
X106155047Y15140000D03*
X105505047Y15140000D03*
X104855047Y15140000D03*
X104205047Y15140000D03*
X103555047Y15140000D03*
X102905047Y15140000D03*
X102255047Y15140000D03*
X101605047Y15140000D03*
X100955047Y15140000D03*
X100305047Y15140000D03*
X99655047Y15140000D03*
X99655047Y20890000D03*
X100305047Y20890000D03*
X100955047Y20890000D03*
X101605047Y20890000D03*
X102255047Y20890000D03*
X102905047Y20890000D03*
X103555047Y20890000D03*
X104205047Y20890000D03*
X104855047Y20890000D03*
X105505047Y20890000D03*
X106155047Y20890000D03*
X106805047Y20890000D03*
%TD*%
D10*
%TO.C,1206*%
X52221111Y115682500D03*
X52221111Y112757500D03*
%TD*%
D29*
%TO.C,LQFP-32 0.8*%
X41050000Y13655000D03*
X40250000Y13655000D03*
X39450000Y13655000D03*
X38650000Y13655000D03*
X37850000Y13655000D03*
X37050000Y13655000D03*
X36250000Y13655000D03*
X35450000Y13655000D03*
D30*
X34075000Y15030000D03*
X34075000Y15830000D03*
X34075000Y16630000D03*
X34075000Y17430000D03*
X34075000Y18230000D03*
X34075000Y19030000D03*
X34075000Y19830000D03*
X34075000Y20630000D03*
D29*
X35450000Y22005000D03*
X36250000Y22005000D03*
X37050000Y22005000D03*
X37850000Y22005000D03*
X38650000Y22005000D03*
X39450000Y22005000D03*
X40250000Y22005000D03*
X41050000Y22005000D03*
D30*
X42425000Y20630000D03*
X42425000Y19830000D03*
X42425000Y19030000D03*
X42425000Y18230000D03*
X42425000Y17430000D03*
X42425000Y16630000D03*
X42425000Y15830000D03*
X42425000Y15030000D03*
%TD*%
D11*
%TO.C,QFN-32 *%
X60814000Y74105000D03*
X62264000Y74105000D03*
X60814000Y75555000D03*
X62264000Y75555000D03*
D12*
X62939000Y72830000D03*
X62539000Y72830000D03*
X62139000Y72830000D03*
X61739000Y72830000D03*
X61339000Y72830000D03*
X60939000Y72830000D03*
X60539000Y72830000D03*
X60139000Y72830000D03*
D13*
X59539000Y73430000D03*
X59539000Y73830000D03*
X59539000Y74230000D03*
X59539000Y74630000D03*
X59539000Y75030000D03*
X59539000Y75430000D03*
X59539000Y75830000D03*
X59539000Y76230000D03*
D12*
X60139000Y76830000D03*
X60539000Y76830000D03*
X60939000Y76830000D03*
X61339000Y76830000D03*
X61739000Y76830000D03*
X62139000Y76830000D03*
X62539000Y76830000D03*
X62939000Y76830000D03*
D13*
X63539000Y76230000D03*
X63539000Y75830000D03*
X63539000Y75430000D03*
X63539000Y75030000D03*
X63539000Y74630000D03*
X63539000Y74230000D03*
X63539000Y73830000D03*
X63539000Y73430000D03*
%TD*%
D31*
%TO.C,TSSOP-16*%
X25975500Y74267500D03*
X27475500Y74267500D03*
X25975500Y75767500D03*
X27475500Y75767500D03*
D32*
X29000500Y72142500D03*
X28350500Y72142500D03*
X27700500Y72142500D03*
X27050500Y72142500D03*
X26400500Y72142500D03*
X25750500Y72142500D03*
X25100500Y72142500D03*
X24450500Y72142500D03*
X24450500Y77892500D03*
X25100500Y77892500D03*
X25750500Y77892500D03*
X26400500Y77892500D03*
X27050500Y77892500D03*
X27700500Y77892500D03*
X28350500Y77892500D03*
X29000500Y77892500D03*
%TD*%
D18*
%TO.C,1812*%
X45598889Y116357500D03*
X45598889Y112082500D03*
%TD*%
D15*
%TO.C,SOT-23-5*%
X65855000Y38990000D03*
X65855000Y38040000D03*
X65855000Y37090000D03*
X63580000Y37090000D03*
X63580000Y38990000D03*
%TD*%
D31*
%TO.C,TSSOP-16*%
X112974547Y74267500D03*
X114474547Y74267500D03*
X112974547Y75767500D03*
X114474547Y75767500D03*
D32*
X115999547Y72142500D03*
X115349547Y72142500D03*
X114699547Y72142500D03*
X114049547Y72142500D03*
X113399547Y72142500D03*
X112749547Y72142500D03*
X112099547Y72142500D03*
X111449547Y72142500D03*
X111449547Y77892500D03*
X112099547Y77892500D03*
X112749547Y77892500D03*
X113399547Y77892500D03*
X114049547Y77892500D03*
X114699547Y77892500D03*
X115349547Y77892500D03*
X115999547Y77892500D03*
%TD*%
D29*
%TO.C,LQFP-32 0.8*%
X41050000Y127655000D03*
X40250000Y127655000D03*
X39450000Y127655000D03*
X38650000Y127655000D03*
X37850000Y127655000D03*
X37050000Y127655000D03*
X36250000Y127655000D03*
X35450000Y127655000D03*
D30*
X34075000Y129030000D03*
X34075000Y129830000D03*
X34075000Y130630000D03*
X34075000Y131430000D03*
X34075000Y132230000D03*
X34075000Y133030000D03*
X34075000Y133830000D03*
X34075000Y134630000D03*
D29*
X35450000Y136005000D03*
X36250000Y136005000D03*
X37050000Y136005000D03*
X37850000Y136005000D03*
X38650000Y136005000D03*
X39450000Y136005000D03*
X40250000Y136005000D03*
X41050000Y136005000D03*
D30*
X42425000Y134630000D03*
X42425000Y133830000D03*
X42425000Y133030000D03*
X42425000Y132230000D03*
X42425000Y131430000D03*
X42425000Y130630000D03*
X42425000Y129830000D03*
X42425000Y129030000D03*
%TD*%
D29*
%TO.C,LQFP-32 0.8*%
X128049047Y70655000D03*
X127249047Y70655000D03*
X126449047Y70655000D03*
X125649047Y70655000D03*
X124849047Y70655000D03*
X124049047Y70655000D03*
X123249047Y70655000D03*
X122449047Y70655000D03*
D30*
X121074047Y72030000D03*
X121074047Y72830000D03*
X121074047Y73630000D03*
X121074047Y74430000D03*
X121074047Y75230000D03*
X121074047Y76030000D03*
X121074047Y76830000D03*
X121074047Y77630000D03*
D29*
X122449047Y79005000D03*
X123249047Y79005000D03*
X124049047Y79005000D03*
X124849047Y79005000D03*
X125649047Y79005000D03*
X126449047Y79005000D03*
X127249047Y79005000D03*
X128049047Y79005000D03*
D30*
X129424047Y77630000D03*
X129424047Y76830000D03*
X129424047Y76030000D03*
X129424047Y75230000D03*
X129424047Y74430000D03*
X129424047Y73630000D03*
X129424047Y72830000D03*
X129424047Y72030000D03*
%TD*%
D19*
%TO.C,LQFP-32 0.5*%
X52934500Y71655000D03*
X52434500Y71655000D03*
X51934500Y71655000D03*
X51434500Y71655000D03*
X50934500Y71655000D03*
X50434500Y71655000D03*
X49934500Y71655000D03*
X49434500Y71655000D03*
D20*
X48009500Y73080000D03*
X48009500Y73580000D03*
X48009500Y74080000D03*
X48009500Y74580000D03*
X48009500Y75080000D03*
X48009500Y75580000D03*
X48009500Y76080000D03*
X48009500Y76580000D03*
D19*
X49434500Y78005000D03*
X49934500Y78005000D03*
X50434500Y78005000D03*
X50934500Y78005000D03*
X51434500Y78005000D03*
X51934500Y78005000D03*
X52434500Y78005000D03*
X52934500Y78005000D03*
D20*
X54359500Y76580000D03*
X54359500Y76080000D03*
X54359500Y75580000D03*
X54359500Y75080000D03*
X54359500Y74580000D03*
X54359500Y74080000D03*
X54359500Y73580000D03*
X54359500Y73080000D03*
%TD*%
D33*
%TO.C,0603*%
X63065556Y115045000D03*
X63065556Y113395000D03*
%TD*%
%TO.C,0603*%
X150064603Y58045000D03*
X150064603Y56395000D03*
%TD*%
D14*
%TO.C,2010*%
X125525714Y59620000D03*
X125525714Y54820000D03*
%TD*%
D21*
%TO.C,4020*%
X101599047Y176032500D03*
X101599047Y166407500D03*
%TD*%
D34*
%TO.C,2512*%
X31474444Y117182500D03*
X31474444Y111257500D03*
%TD*%
D31*
%TO.C,TSSOP-16*%
X25975500Y17267500D03*
X27475500Y17267500D03*
X25975500Y18767500D03*
X27475500Y18767500D03*
D32*
X29000500Y15142500D03*
X28350500Y15142500D03*
X27700500Y15142500D03*
X27050500Y15142500D03*
X26400500Y15142500D03*
X25750500Y15142500D03*
X25100500Y15142500D03*
X24450500Y15142500D03*
X24450500Y20892500D03*
X25100500Y20892500D03*
X25750500Y20892500D03*
X26400500Y20892500D03*
X27050500Y20892500D03*
X27700500Y20892500D03*
X28350500Y20892500D03*
X29000500Y20892500D03*
%TD*%
D34*
%TO.C,2512*%
X118473491Y174182500D03*
X118473491Y168257500D03*
%TD*%
D15*
%TO.C,SOT-23-3*%
X57030000Y38970000D03*
X57030000Y37070000D03*
X54755000Y38020000D03*
%TD*%
D35*
%TO.C,0805*%
X57843333Y115132500D03*
X57843333Y113307500D03*
%TD*%
D11*
%TO.C,QFN-32 *%
X147813047Y74105000D03*
X149263047Y74105000D03*
X147813047Y75555000D03*
X149263047Y75555000D03*
D12*
X149938047Y72830000D03*
X149538047Y72830000D03*
X149138047Y72830000D03*
X148738047Y72830000D03*
X148338047Y72830000D03*
X147938047Y72830000D03*
X147538047Y72830000D03*
X147138047Y72830000D03*
D13*
X146538047Y73430000D03*
X146538047Y73830000D03*
X146538047Y74230000D03*
X146538047Y74630000D03*
X146538047Y75030000D03*
X146538047Y75430000D03*
X146538047Y75830000D03*
X146538047Y76230000D03*
D12*
X147138047Y76830000D03*
X147538047Y76830000D03*
X147938047Y76830000D03*
X148338047Y76830000D03*
X148738047Y76830000D03*
X149138047Y76830000D03*
X149538047Y76830000D03*
X149938047Y76830000D03*
D13*
X150538047Y76230000D03*
X150538047Y75830000D03*
X150538047Y75430000D03*
X150538047Y75030000D03*
X150538047Y74630000D03*
X150538047Y74230000D03*
X150538047Y73830000D03*
X150538047Y73430000D03*
%TD*%
D15*
%TO.C,SOT-23-5*%
X65855000Y152990000D03*
X65855000Y152040000D03*
X65855000Y151090000D03*
X63580000Y151090000D03*
X63580000Y152990000D03*
%TD*%
D19*
%TO.C,LQFP-32 0.5*%
X52934500Y14655000D03*
X52434500Y14655000D03*
X51934500Y14655000D03*
X51434500Y14655000D03*
X50934500Y14655000D03*
X50434500Y14655000D03*
X49934500Y14655000D03*
X49434500Y14655000D03*
D20*
X48009500Y16080000D03*
X48009500Y16580000D03*
X48009500Y17080000D03*
X48009500Y17580000D03*
X48009500Y18080000D03*
X48009500Y18580000D03*
X48009500Y19080000D03*
X48009500Y19580000D03*
D19*
X49434500Y21005000D03*
X49934500Y21005000D03*
X50434500Y21005000D03*
X50934500Y21005000D03*
X51434500Y21005000D03*
X51934500Y21005000D03*
X52434500Y21005000D03*
X52934500Y21005000D03*
D20*
X54359500Y19580000D03*
X54359500Y19080000D03*
X54359500Y18580000D03*
X54359500Y18080000D03*
X54359500Y17580000D03*
X54359500Y17080000D03*
X54359500Y16580000D03*
X54359500Y16080000D03*
%TD*%
D18*
%TO.C,1812*%
X132597936Y173357500D03*
X132597936Y169082500D03*
%TD*%
D21*
%TO.C,4020*%
X14600000Y176032500D03*
X14600000Y166407500D03*
%TD*%
D27*
%TO.C,2816*%
X110521269Y116732500D03*
X110521269Y111707500D03*
%TD*%
D19*
%TO.C,LQFP-32 0.5*%
X139933547Y71655000D03*
X139433547Y71655000D03*
X138933547Y71655000D03*
X138433547Y71655000D03*
X137933547Y71655000D03*
X137433547Y71655000D03*
X136933547Y71655000D03*
X136433547Y71655000D03*
D20*
X135008547Y73080000D03*
X135008547Y73580000D03*
X135008547Y74080000D03*
X135008547Y74580000D03*
X135008547Y75080000D03*
X135008547Y75580000D03*
X135008547Y76080000D03*
X135008547Y76580000D03*
D19*
X136433547Y78005000D03*
X136933547Y78005000D03*
X137433547Y78005000D03*
X137933547Y78005000D03*
X138433547Y78005000D03*
X138933547Y78005000D03*
X139433547Y78005000D03*
X139933547Y78005000D03*
D20*
X141358547Y76580000D03*
X141358547Y76080000D03*
X141358547Y75580000D03*
X141358547Y75080000D03*
X141358547Y74580000D03*
X141358547Y74080000D03*
X141358547Y73580000D03*
X141358547Y73080000D03*
%TD*%
D11*
%TO.C,QFN-32 *%
X147813047Y17105000D03*
X149263047Y17105000D03*
X147813047Y18555000D03*
X149263047Y18555000D03*
D12*
X149938047Y15830000D03*
X149538047Y15830000D03*
X149138047Y15830000D03*
X148738047Y15830000D03*
X148338047Y15830000D03*
X147938047Y15830000D03*
X147538047Y15830000D03*
X147138047Y15830000D03*
D13*
X146538047Y16430000D03*
X146538047Y16830000D03*
X146538047Y17230000D03*
X146538047Y17630000D03*
X146538047Y18030000D03*
X146538047Y18430000D03*
X146538047Y18830000D03*
X146538047Y19230000D03*
D12*
X147138047Y19830000D03*
X147538047Y19830000D03*
X147938047Y19830000D03*
X148338047Y19830000D03*
X148738047Y19830000D03*
X149138047Y19830000D03*
X149538047Y19830000D03*
X149938047Y19830000D03*
D13*
X150538047Y19230000D03*
X150538047Y18830000D03*
X150538047Y18430000D03*
X150538047Y18030000D03*
X150538047Y17630000D03*
X150538047Y17230000D03*
X150538047Y16830000D03*
X150538047Y16430000D03*
%TD*%
D36*
%TO.C,0402*%
X67807778Y171730000D03*
X67807778Y170710000D03*
%TD*%
D24*
%TO.C,QFN-16*%
X156417547Y74405000D03*
X157267547Y74405000D03*
X156417547Y75255000D03*
X157267547Y75255000D03*
D25*
X157592547Y73367500D03*
X157092547Y73367500D03*
X156592547Y73367500D03*
X156092547Y73367500D03*
D26*
X155380047Y74080000D03*
X155380047Y74580000D03*
X155380047Y75080000D03*
X155380047Y75580000D03*
D25*
X156092547Y76292500D03*
X156592547Y76292500D03*
X157092547Y76292500D03*
X157592547Y76292500D03*
D26*
X158305047Y75580000D03*
X158305047Y75080000D03*
X158305047Y74580000D03*
X158305047Y74080000D03*
%TD*%
D27*
%TO.C,2816*%
X110521269Y59732500D03*
X110521269Y54707500D03*
%TD*%
D18*
%TO.C,1812*%
X45598889Y173357500D03*
X45598889Y169082500D03*
%TD*%
D21*
%TO.C,4020*%
X101599047Y119032500D03*
X101599047Y109407500D03*
%TD*%
D24*
%TO.C,QFN-16*%
X69418500Y74405000D03*
X70268500Y74405000D03*
X69418500Y75255000D03*
X70268500Y75255000D03*
D25*
X70593500Y73367500D03*
X70093500Y73367500D03*
X69593500Y73367500D03*
X69093500Y73367500D03*
D26*
X68381000Y74080000D03*
X68381000Y74580000D03*
X68381000Y75080000D03*
X68381000Y75580000D03*
D25*
X69093500Y76292500D03*
X69593500Y76292500D03*
X70093500Y76292500D03*
X70593500Y76292500D03*
D26*
X71306000Y75580000D03*
X71306000Y75080000D03*
X71306000Y74580000D03*
X71306000Y74080000D03*
%TD*%
D22*
%TO.C,TSSOP-24*%
X14561000Y17215000D03*
X16231000Y17215000D03*
X17901000Y17215000D03*
X14561000Y18815000D03*
X16231000Y18815000D03*
X17901000Y18815000D03*
D23*
X19806000Y15140000D03*
X19156000Y15140000D03*
X18506000Y15140000D03*
X17856000Y15140000D03*
X17206000Y15140000D03*
X16556000Y15140000D03*
X15906000Y15140000D03*
X15256000Y15140000D03*
X14606000Y15140000D03*
X13956000Y15140000D03*
X13306000Y15140000D03*
X12656000Y15140000D03*
X12656000Y20890000D03*
X13306000Y20890000D03*
X13956000Y20890000D03*
X14606000Y20890000D03*
X15256000Y20890000D03*
X15906000Y20890000D03*
X16556000Y20890000D03*
X17206000Y20890000D03*
X17856000Y20890000D03*
X18506000Y20890000D03*
X19156000Y20890000D03*
X19806000Y20890000D03*
%TD*%
D33*
%TO.C,0603*%
X63065556Y172045000D03*
X63065556Y170395000D03*
%TD*%
D24*
%TO.C,QFN-16*%
X156417547Y131405000D03*
X157267547Y131405000D03*
X156417547Y132255000D03*
X157267547Y132255000D03*
D25*
X157592547Y130367500D03*
X157092547Y130367500D03*
X156592547Y130367500D03*
X156092547Y130367500D03*
D26*
X155380047Y131080000D03*
X155380047Y131580000D03*
X155380047Y132080000D03*
X155380047Y132580000D03*
D25*
X156092547Y133292500D03*
X156592547Y133292500D03*
X157092547Y133292500D03*
X157592547Y133292500D03*
D26*
X158305047Y132580000D03*
X158305047Y132080000D03*
X158305047Y131580000D03*
X158305047Y131080000D03*
%TD*%
D34*
%TO.C,2512*%
X31474444Y60182500D03*
X31474444Y54257500D03*
%TD*%
D14*
%TO.C,2010*%
X38526667Y173620000D03*
X38526667Y168820000D03*
%TD*%
D36*
%TO.C,0402*%
X154806825Y171730000D03*
X154806825Y170710000D03*
%TD*%
D29*
%TO.C,LQFP-32 0.8*%
X41050000Y70655000D03*
X40250000Y70655000D03*
X39450000Y70655000D03*
X38650000Y70655000D03*
X37850000Y70655000D03*
X37050000Y70655000D03*
X36250000Y70655000D03*
X35450000Y70655000D03*
D30*
X34075000Y72030000D03*
X34075000Y72830000D03*
X34075000Y73630000D03*
X34075000Y74430000D03*
X34075000Y75230000D03*
X34075000Y76030000D03*
X34075000Y76830000D03*
X34075000Y77630000D03*
D29*
X35450000Y79005000D03*
X36250000Y79005000D03*
X37050000Y79005000D03*
X37850000Y79005000D03*
X38650000Y79005000D03*
X39450000Y79005000D03*
X40250000Y79005000D03*
X41050000Y79005000D03*
D30*
X42425000Y77630000D03*
X42425000Y76830000D03*
X42425000Y76030000D03*
X42425000Y75230000D03*
X42425000Y74430000D03*
X42425000Y73630000D03*
X42425000Y72830000D03*
X42425000Y72030000D03*
%TD*%
D11*
%TO.C,QFN-32 *%
X60814000Y131105000D03*
X62264000Y131105000D03*
X60814000Y132555000D03*
X62264000Y132555000D03*
D12*
X62939000Y129830000D03*
X62539000Y129830000D03*
X62139000Y129830000D03*
X61739000Y129830000D03*
X61339000Y129830000D03*
X60939000Y129830000D03*
X60539000Y129830000D03*
X60139000Y129830000D03*
D13*
X59539000Y130430000D03*
X59539000Y130830000D03*
X59539000Y131230000D03*
X59539000Y131630000D03*
X59539000Y132030000D03*
X59539000Y132430000D03*
X59539000Y132830000D03*
X59539000Y133230000D03*
D12*
X60139000Y133830000D03*
X60539000Y133830000D03*
X60939000Y133830000D03*
X61339000Y133830000D03*
X61739000Y133830000D03*
X62139000Y133830000D03*
X62539000Y133830000D03*
X62939000Y133830000D03*
D13*
X63539000Y133230000D03*
X63539000Y132830000D03*
X63539000Y132430000D03*
X63539000Y132030000D03*
X63539000Y131630000D03*
X63539000Y131230000D03*
X63539000Y130830000D03*
X63539000Y130430000D03*
%TD*%
D34*
%TO.C,2512*%
X31474444Y174182500D03*
X31474444Y168257500D03*
%TD*%
D28*
%TO.C,0201*%
X159169047Y114565000D03*
X159169047Y113875000D03*
%TD*%
%TO.C,0201*%
X72170000Y57565000D03*
X72170000Y56875000D03*
%TD*%
D21*
%TO.C,4020*%
X101599047Y62032500D03*
X101599047Y52407500D03*
%TD*%
D24*
%TO.C,QFN-16*%
X69418500Y17405000D03*
X70268500Y17405000D03*
X69418500Y18255000D03*
X70268500Y18255000D03*
D25*
X70593500Y16367500D03*
X70093500Y16367500D03*
X69593500Y16367500D03*
X69093500Y16367500D03*
D26*
X68381000Y17080000D03*
X68381000Y17580000D03*
X68381000Y18080000D03*
X68381000Y18580000D03*
D25*
X69093500Y19292500D03*
X69593500Y19292500D03*
X70093500Y19292500D03*
X70593500Y19292500D03*
D26*
X71306000Y18580000D03*
X71306000Y18080000D03*
X71306000Y17580000D03*
X71306000Y17080000D03*
%TD*%
D21*
%TO.C,4020*%
X14600000Y119032500D03*
X14600000Y109407500D03*
%TD*%
D33*
%TO.C,0603*%
X63065556Y58045000D03*
X63065556Y56395000D03*
%TD*%
D31*
%TO.C,TSSOP-16*%
X112974547Y131267500D03*
X114474547Y131267500D03*
X112974547Y132767500D03*
X114474547Y132767500D03*
D32*
X115999547Y129142500D03*
X115349547Y129142500D03*
X114699547Y129142500D03*
X114049547Y129142500D03*
X113399547Y129142500D03*
X112749547Y129142500D03*
X112099547Y129142500D03*
X111449547Y129142500D03*
X111449547Y134892500D03*
X112099547Y134892500D03*
X112749547Y134892500D03*
X113399547Y134892500D03*
X114049547Y134892500D03*
X114699547Y134892500D03*
X115349547Y134892500D03*
X115999547Y134892500D03*
%TD*%
D36*
%TO.C,0402*%
X154806825Y114730000D03*
X154806825Y113710000D03*
%TD*%
D29*
%TO.C,LQFP-32 0.8*%
X128049047Y127655000D03*
X127249047Y127655000D03*
X126449047Y127655000D03*
X125649047Y127655000D03*
X124849047Y127655000D03*
X124049047Y127655000D03*
X123249047Y127655000D03*
X122449047Y127655000D03*
D30*
X121074047Y129030000D03*
X121074047Y129830000D03*
X121074047Y130630000D03*
X121074047Y131430000D03*
X121074047Y132230000D03*
X121074047Y133030000D03*
X121074047Y133830000D03*
X121074047Y134630000D03*
D29*
X122449047Y136005000D03*
X123249047Y136005000D03*
X124049047Y136005000D03*
X124849047Y136005000D03*
X125649047Y136005000D03*
X126449047Y136005000D03*
X127249047Y136005000D03*
X128049047Y136005000D03*
D30*
X129424047Y134630000D03*
X129424047Y133830000D03*
X129424047Y133030000D03*
X129424047Y132230000D03*
X129424047Y131430000D03*
X129424047Y130630000D03*
X129424047Y129830000D03*
X129424047Y129030000D03*
%TD*%
D35*
%TO.C,0805*%
X144842380Y172132500D03*
X144842380Y170307500D03*
%TD*%
D34*
%TO.C,2512*%
X118473491Y117182500D03*
X118473491Y111257500D03*
%TD*%
D28*
%TO.C,0201*%
X72170000Y171565000D03*
X72170000Y170875000D03*
%TD*%
D15*
%TO.C,SOT-23-5*%
X65855000Y95990000D03*
X65855000Y95040000D03*
X65855000Y94090000D03*
X63580000Y94090000D03*
X63580000Y95990000D03*
%TD*%
D22*
%TO.C,TSSOP-24*%
X14561000Y74215000D03*
X16231000Y74215000D03*
X17901000Y74215000D03*
X14561000Y75815000D03*
X16231000Y75815000D03*
X17901000Y75815000D03*
D23*
X19806000Y72140000D03*
X19156000Y72140000D03*
X18506000Y72140000D03*
X17856000Y72140000D03*
X17206000Y72140000D03*
X16556000Y72140000D03*
X15906000Y72140000D03*
X15256000Y72140000D03*
X14606000Y72140000D03*
X13956000Y72140000D03*
X13306000Y72140000D03*
X12656000Y72140000D03*
X12656000Y77890000D03*
X13306000Y77890000D03*
X13956000Y77890000D03*
X14606000Y77890000D03*
X15256000Y77890000D03*
X15906000Y77890000D03*
X16556000Y77890000D03*
X17206000Y77890000D03*
X17856000Y77890000D03*
X18506000Y77890000D03*
X19156000Y77890000D03*
X19806000Y77890000D03*
%TD*%
D15*
%TO.C,SOT-23-5*%
X152854047Y95990000D03*
X152854047Y95040000D03*
X152854047Y94090000D03*
X150579047Y94090000D03*
X150579047Y95990000D03*
%TD*%
D27*
%TO.C,2816*%
X23522222Y59732500D03*
X23522222Y54707500D03*
%TD*%
D33*
%TO.C,0603*%
X150064603Y172045000D03*
X150064603Y170395000D03*
%TD*%
D28*
%TO.C,0201*%
X159169047Y171565000D03*
X159169047Y170875000D03*
%TD*%
D14*
%TO.C,2010*%
X125525714Y116620000D03*
X125525714Y111820000D03*
%TD*%
D18*
%TO.C,1812*%
X132597936Y59357500D03*
X132597936Y55082500D03*
%TD*%
D35*
%TO.C,0805*%
X57843333Y172132500D03*
X57843333Y170307500D03*
%TD*%
D15*
%TO.C,SOT-23-3*%
X57030000Y95970000D03*
X57030000Y94070000D03*
X54755000Y95020000D03*
%TD*%
D36*
%TO.C,0402*%
X67807778Y57730000D03*
X67807778Y56710000D03*
%TD*%
D31*
%TO.C,TSSOP-16*%
X25975500Y131267500D03*
X27475500Y131267500D03*
X25975500Y132767500D03*
X27475500Y132767500D03*
D32*
X29000500Y129142500D03*
X28350500Y129142500D03*
X27700500Y129142500D03*
X27050500Y129142500D03*
X26400500Y129142500D03*
X25750500Y129142500D03*
X25100500Y129142500D03*
X24450500Y129142500D03*
X24450500Y134892500D03*
X25100500Y134892500D03*
X25750500Y134892500D03*
X26400500Y134892500D03*
X27050500Y134892500D03*
X27700500Y134892500D03*
X28350500Y134892500D03*
X29000500Y134892500D03*
%TD*%
D24*
%TO.C,QFN-16*%
X69418500Y131405000D03*
X70268500Y131405000D03*
X69418500Y132255000D03*
X70268500Y132255000D03*
D25*
X70593500Y130367500D03*
X70093500Y130367500D03*
X69593500Y130367500D03*
X69093500Y130367500D03*
D26*
X68381000Y131080000D03*
X68381000Y131580000D03*
X68381000Y132080000D03*
X68381000Y132580000D03*
D25*
X69093500Y133292500D03*
X69593500Y133292500D03*
X70093500Y133292500D03*
X70593500Y133292500D03*
D26*
X71306000Y132580000D03*
X71306000Y132080000D03*
X71306000Y131580000D03*
X71306000Y131080000D03*
%TD*%
D15*
%TO.C,SOT-23-3*%
X144029047Y152970000D03*
X144029047Y151070000D03*
X141754047Y152020000D03*
%TD*%
%TO.C,SOT-23-5*%
X152854047Y152990000D03*
X152854047Y152040000D03*
X152854047Y151090000D03*
X150579047Y151090000D03*
X150579047Y152990000D03*
%TD*%
%TO.C,SOT-23-5*%
X152854047Y38990000D03*
X152854047Y38040000D03*
X152854047Y37090000D03*
X150579047Y37090000D03*
X150579047Y38990000D03*
%TD*%
D16*
%TO.C,SOT-223*%
X57840000Y88830000D03*
X60140000Y88830000D03*
X62440000Y88830000D03*
D17*
X60140000Y82530000D03*
%TD*%
D27*
%TO.C,2816*%
X23522222Y116732500D03*
X23522222Y111707500D03*
%TD*%
D16*
%TO.C,SOT-223*%
X144839047Y88830000D03*
X147139047Y88830000D03*
X149439047Y88830000D03*
D17*
X147139047Y82530000D03*
%TD*%
D36*
%TO.C,0402*%
X154806825Y57730000D03*
X154806825Y56710000D03*
%TD*%
D35*
%TO.C,0805*%
X144842380Y115132500D03*
X144842380Y113307500D03*
%TD*%
D27*
%TO.C,2816*%
X23522222Y173732500D03*
X23522222Y168707500D03*
%TD*%
D31*
%TO.C,TSSOP-16*%
X112974547Y17267500D03*
X114474547Y17267500D03*
X112974547Y18767500D03*
X114474547Y18767500D03*
D32*
X115999547Y15142500D03*
X115349547Y15142500D03*
X114699547Y15142500D03*
X114049547Y15142500D03*
X113399547Y15142500D03*
X112749547Y15142500D03*
X112099547Y15142500D03*
X111449547Y15142500D03*
X111449547Y20892500D03*
X112099547Y20892500D03*
X112749547Y20892500D03*
X113399547Y20892500D03*
X114049547Y20892500D03*
X114699547Y20892500D03*
X115349547Y20892500D03*
X115999547Y20892500D03*
%TD*%
D18*
%TO.C,1812*%
X45598889Y59357500D03*
X45598889Y55082500D03*
%TD*%
D16*
%TO.C,SOT-223*%
X57840000Y145830000D03*
X60140000Y145830000D03*
X62440000Y145830000D03*
D17*
X60140000Y139530000D03*
%TD*%
D10*
%TO.C,1206*%
X52221111Y58682500D03*
X52221111Y55757500D03*
%TD*%
D35*
%TO.C,0805*%
X57843333Y58132500D03*
X57843333Y56307500D03*
%TD*%
D33*
%TO.C,0603*%
X150064603Y115045000D03*
X150064603Y113395000D03*
%TD*%
D15*
%TO.C,SOT-23-3*%
X57030000Y152970000D03*
X57030000Y151070000D03*
X54755000Y152020000D03*
%TD*%
D19*
%TO.C,LQFP-32 0.5*%
X52934500Y128655000D03*
X52434500Y128655000D03*
X51934500Y128655000D03*
X51434500Y128655000D03*
X50934500Y128655000D03*
X50434500Y128655000D03*
X49934500Y128655000D03*
X49434500Y128655000D03*
D20*
X48009500Y130080000D03*
X48009500Y130580000D03*
X48009500Y131080000D03*
X48009500Y131580000D03*
X48009500Y132080000D03*
X48009500Y132580000D03*
X48009500Y133080000D03*
X48009500Y133580000D03*
D19*
X49434500Y135005000D03*
X49934500Y135005000D03*
X50434500Y135005000D03*
X50934500Y135005000D03*
X51434500Y135005000D03*
X51934500Y135005000D03*
X52434500Y135005000D03*
X52934500Y135005000D03*
D20*
X54359500Y133580000D03*
X54359500Y133080000D03*
X54359500Y132580000D03*
X54359500Y132080000D03*
X54359500Y131580000D03*
X54359500Y131080000D03*
X54359500Y130580000D03*
X54359500Y130080000D03*
%TD*%
D29*
%TO.C,LQFP-32 0.8*%
X128049047Y13655000D03*
X127249047Y13655000D03*
X126449047Y13655000D03*
X125649047Y13655000D03*
X124849047Y13655000D03*
X124049047Y13655000D03*
X123249047Y13655000D03*
X122449047Y13655000D03*
D30*
X121074047Y15030000D03*
X121074047Y15830000D03*
X121074047Y16630000D03*
X121074047Y17430000D03*
X121074047Y18230000D03*
X121074047Y19030000D03*
X121074047Y19830000D03*
X121074047Y20630000D03*
D29*
X122449047Y22005000D03*
X123249047Y22005000D03*
X124049047Y22005000D03*
X124849047Y22005000D03*
X125649047Y22005000D03*
X126449047Y22005000D03*
X127249047Y22005000D03*
X128049047Y22005000D03*
D30*
X129424047Y20630000D03*
X129424047Y19830000D03*
X129424047Y19030000D03*
X129424047Y18230000D03*
X129424047Y17430000D03*
X129424047Y16630000D03*
X129424047Y15830000D03*
X129424047Y15030000D03*
%TD*%
D19*
%TO.C,LQFP-32 0.5*%
X139933547Y128655000D03*
X139433547Y128655000D03*
X138933547Y128655000D03*
X138433547Y128655000D03*
X137933547Y128655000D03*
X137433547Y128655000D03*
X136933547Y128655000D03*
X136433547Y128655000D03*
D20*
X135008547Y130080000D03*
X135008547Y130580000D03*
X135008547Y131080000D03*
X135008547Y131580000D03*
X135008547Y132080000D03*
X135008547Y132580000D03*
X135008547Y133080000D03*
X135008547Y133580000D03*
D19*
X136433547Y135005000D03*
X136933547Y135005000D03*
X137433547Y135005000D03*
X137933547Y135005000D03*
X138433547Y135005000D03*
X138933547Y135005000D03*
X139433547Y135005000D03*
X139933547Y135005000D03*
D20*
X141358547Y133580000D03*
X141358547Y133080000D03*
X141358547Y132580000D03*
X141358547Y132080000D03*
X141358547Y131580000D03*
X141358547Y131080000D03*
X141358547Y130580000D03*
X141358547Y130080000D03*
%TD*%
D11*
%TO.C,QFN-32 *%
X60814000Y17105000D03*
X62264000Y17105000D03*
X60814000Y18555000D03*
X62264000Y18555000D03*
D12*
X62939000Y15830000D03*
X62539000Y15830000D03*
X62139000Y15830000D03*
X61739000Y15830000D03*
X61339000Y15830000D03*
X60939000Y15830000D03*
X60539000Y15830000D03*
X60139000Y15830000D03*
D13*
X59539000Y16430000D03*
X59539000Y16830000D03*
X59539000Y17230000D03*
X59539000Y17630000D03*
X59539000Y18030000D03*
X59539000Y18430000D03*
X59539000Y18830000D03*
X59539000Y19230000D03*
D12*
X60139000Y19830000D03*
X60539000Y19830000D03*
X60939000Y19830000D03*
X61339000Y19830000D03*
X61739000Y19830000D03*
X62139000Y19830000D03*
X62539000Y19830000D03*
X62939000Y19830000D03*
D13*
X63539000Y19230000D03*
X63539000Y18830000D03*
X63539000Y18430000D03*
X63539000Y18030000D03*
X63539000Y17630000D03*
X63539000Y17230000D03*
X63539000Y16830000D03*
X63539000Y16430000D03*
%TD*%
D35*
%TO.C,0805*%
X144842380Y58132500D03*
X144842380Y56307500D03*
%TD*%
D36*
%TO.C,0402*%
X67807778Y114730000D03*
X67807778Y113710000D03*
%TD*%
D14*
%TO.C,2010*%
X125525714Y173620000D03*
X125525714Y168820000D03*
%TD*%
D10*
%TO.C,1206*%
X139220158Y172682500D03*
X139220158Y169757500D03*
%TD*%
D16*
%TO.C,SOT-223*%
X57840000Y31830000D03*
X60140000Y31830000D03*
X62440000Y31830000D03*
D17*
X60140000Y25530000D03*
%TD*%
D14*
%TO.C,2010*%
X38526667Y116620000D03*
X38526667Y111820000D03*
%TD*%
D15*
%TO.C,SOT-23-3*%
X144029047Y38970000D03*
X144029047Y37070000D03*
X141754047Y38020000D03*
%TD*%
D22*
%TO.C,TSSOP-24*%
X101560047Y74215000D03*
X103230047Y74215000D03*
X104900047Y74215000D03*
X101560047Y75815000D03*
X103230047Y75815000D03*
X104900047Y75815000D03*
D23*
X106805047Y72140000D03*
X106155047Y72140000D03*
X105505047Y72140000D03*
X104855047Y72140000D03*
X104205047Y72140000D03*
X103555047Y72140000D03*
X102905047Y72140000D03*
X102255047Y72140000D03*
X101605047Y72140000D03*
X100955047Y72140000D03*
X100305047Y72140000D03*
X99655047Y72140000D03*
X99655047Y77890000D03*
X100305047Y77890000D03*
X100955047Y77890000D03*
X101605047Y77890000D03*
X102255047Y77890000D03*
X102905047Y77890000D03*
X103555047Y77890000D03*
X104205047Y77890000D03*
X104855047Y77890000D03*
X105505047Y77890000D03*
X106155047Y77890000D03*
X106805047Y77890000D03*
%TD*%
D28*
%TO.C,0201*%
X72170000Y114565000D03*
X72170000Y113875000D03*
%TD*%
D34*
%TO.C,2512*%
X118473491Y60182500D03*
X118473491Y54257500D03*
%TD*%
M02*
