%TF.GenerationSoftware,KiCad,Pcbnew,9.0.1*%
%TF.CreationDate,2026-01-27T16:11:31-05:00*%
%TF.ProjectId,PCBussinesCard_panel,50434275-7373-4696-9e65-73436172645f,rev?*%
%TF.SameCoordinates,PX32119daPYc751640*%
%TF.FileFunction,Profile,NP*%
%FSLAX46Y46*%
G04 Gerber Fmt 4.6, Leading zero omitted, Abs format (unit mm)*
G04 Created by KiCad (PCBNEW 9.0.1) date 2026-01-27 16:11:31*
%MOMM*%
%LPD*%
G01*
G04 APERTURE LIST*
%TA.AperFunction,Profile*%
%ADD10C,0.100000*%
%TD*%
G04 APERTURE END LIST*
D10*
X173613423Y178632077D02*
X168183755Y173204628D01*
X176213021Y50476368D02*
X176179036Y50513953D01*
X94766031Y56903904D02*
X94767316Y56954549D01*
X181544800Y125414366D02*
X181621879Y125545452D01*
X181461178Y68287353D02*
X181544800Y68414366D01*
X167553907Y173141525D02*
X167513091Y173171685D01*
X167475538Y116205823D02*
X162598908Y121114398D01*
X181599805Y158929174D02*
X181514256Y159074014D01*
X162365221Y121326097D02*
X162240358Y121422445D01*
X181621879Y11545452D02*
X181692216Y11680277D01*
X98285242Y64462291D02*
X98162729Y64372328D01*
X98285242Y124537710D02*
X98412154Y124454068D01*
X180181696Y10243392D02*
X180319865Y10306909D01*
X148665077Y66001000D02*
X148665077Y65999000D01*
X99247089Y10095769D02*
X99395151Y10061411D01*
X161250277Y121896929D02*
X161096957Y121933897D01*
X11816932Y64756874D02*
X11678817Y64693414D01*
X99847099Y10003851D02*
X99999047Y10000000D01*
X80843044Y173058359D02*
X80792312Y173059733D01*
X167513091Y116171685D02*
X167475538Y116205823D01*
X174151329Y178717240D02*
X174127147Y178727258D01*
X87128100Y64727258D02*
X87103426Y64735997D01*
X173895715Y64757740D02*
X173844026Y64749556D01*
X13000000Y124000000D02*
X33333015Y124000014D01*
X89103040Y108015589D02*
X89124196Y108061632D01*
X61666030Y122000000D02*
X43333015Y122000000D01*
X94698316Y56688180D02*
X94721780Y56733080D01*
X80968202Y59077355D02*
X80943621Y59071021D01*
X94670453Y114237883D02*
X94638432Y114277141D01*
X94999046Y127002275D02*
X94984252Y146500000D01*
X10723725Y125045883D02*
X10825621Y124933100D01*
X97536756Y177713805D02*
X97453114Y177586893D01*
X93953939Y124724416D02*
X94066741Y124826400D01*
X174197956Y64693479D02*
X174151329Y64717240D01*
X89103092Y50644481D02*
X89086690Y50692425D01*
X181747227Y57079461D02*
X181739641Y57103638D01*
X91999047Y67000054D02*
X92151066Y67003905D01*
X43333015Y65999000D02*
X43333015Y66001000D01*
X94746855Y158626261D02*
X94678055Y158779766D01*
X94964762Y69547750D02*
X94983869Y69698614D01*
X75366174Y178326097D02*
X75241311Y178422445D01*
X71666030Y181000000D02*
X120332062Y181000000D01*
X181420723Y102213832D02*
X181319500Y102348187D01*
X97453114Y11413108D02*
X97536756Y11286196D01*
X11958084Y178813257D02*
X11816932Y178756874D01*
X81106125Y173140591D02*
X81084576Y173127176D01*
X120332062Y65999000D02*
X120332062Y65000000D01*
X94545753Y125414366D02*
X94622832Y125545452D01*
X93041440Y67186958D02*
X93182649Y67243392D01*
X98044929Y67723726D02*
X98162729Y67627673D01*
X89075225Y164741782D02*
X89068814Y164792047D01*
X33333015Y181000000D02*
X33333015Y179000000D01*
X94678055Y101779766D02*
X94600758Y101929174D01*
X94858131Y158308899D02*
X94806944Y158469140D01*
X181994354Y69850252D02*
X181998093Y70002275D01*
X10306586Y11678818D02*
X10376960Y11544095D01*
X12545716Y178965405D02*
X12396104Y178938590D01*
X94754532Y114054931D02*
X94740594Y114103638D01*
X11816932Y10243127D02*
X11958084Y10186744D01*
X99544763Y124034596D02*
X99695542Y124015393D01*
X94746855Y44626261D02*
X94678055Y44779766D01*
X75111557Y121512098D02*
X74977271Y121594809D01*
X94276130Y11046846D02*
X94372179Y11164742D01*
X98162729Y67627673D02*
X98285242Y67537710D01*
X176179036Y164513953D02*
X176149029Y164554785D01*
X96999047Y127000000D02*
X97002897Y126848053D01*
X99247089Y178904232D02*
X99100957Y178862418D01*
X161250277Y178896929D02*
X161096957Y178933897D01*
X181653987Y57257918D02*
X181620018Y57295504D01*
X94320453Y159348187D02*
X94211859Y159476658D01*
X98285242Y10537710D02*
X98412154Y10454068D01*
X99395151Y10061411D02*
X99544763Y10034596D01*
X33333015Y122000000D02*
X13000000Y122000000D01*
X174127147Y121727258D02*
X174077376Y121743432D01*
X96999047Y70000000D02*
X97002897Y69848053D01*
X97453114Y125413108D02*
X97536756Y125286196D01*
X181669500Y171237883D02*
X181653987Y171257918D01*
X94763471Y171005064D02*
X94754532Y171054931D01*
X167475538Y173205823D02*
X162598908Y178114398D01*
X12545716Y10034596D02*
X12696495Y10015393D01*
X178998094Y10000054D02*
X179150113Y10003905D01*
X181970126Y43646914D02*
X181955866Y43814527D01*
X12396104Y64938590D02*
X12248042Y64904232D01*
X97824668Y178066901D02*
X97722772Y177954118D01*
X176149029Y107554785D02*
X176123309Y107598443D01*
X97453114Y177586893D02*
X97376007Y177455906D01*
X168183755Y59204628D02*
X168146091Y59170613D01*
X162484848Y178223320D02*
X162365221Y178326097D01*
X10825621Y178066901D02*
X10723725Y177954118D01*
X183998093Y99500000D02*
X181975712Y99500000D01*
X10454067Y68413108D02*
X10537709Y68286196D01*
X10376960Y177455906D02*
X10306586Y177321183D01*
X12696495Y178984608D02*
X12545716Y178965405D01*
X86844979Y64749556D02*
X86819527Y64743447D01*
X98957131Y10186744D02*
X99100957Y10137583D01*
X94903755Y126249894D02*
X94938034Y126398049D01*
X181709664Y170710332D02*
X181730823Y170756364D01*
X12848052Y124003851D02*
X13000000Y124000000D01*
X92897552Y124137752D02*
X93041440Y124186958D01*
X10186743Y11958085D02*
X10243126Y11816933D01*
X176079347Y164943105D02*
X176093285Y164991822D01*
X97453114Y120586893D02*
X97376007Y120455906D01*
X176213021Y164476368D02*
X176179036Y164513953D01*
X12545716Y67034596D02*
X12696495Y67015393D01*
X10627672Y125163683D02*
X10723725Y125045883D01*
X181983299Y89500000D02*
X183998093Y89500000D01*
X43333015Y122999000D02*
X43333015Y123001000D01*
X162110604Y178512098D02*
X161976318Y178594809D01*
X10095768Y126248043D02*
X10137582Y126101911D01*
X10723725Y177954118D02*
X10627672Y177836318D01*
X98957131Y64813257D02*
X98815979Y64756874D01*
X181974970Y157478765D02*
X181970126Y157646914D01*
X180319865Y67306909D02*
X180454637Y67377346D01*
X160470669Y65000000D02*
X158665077Y65000000D01*
X89124196Y51061632D02*
X89149904Y51105298D01*
X97626719Y63836318D02*
X97536756Y63713805D01*
X10137582Y126101911D02*
X10186743Y125958085D01*
X181747216Y113804300D02*
X181758673Y113853649D01*
X162484848Y64223320D02*
X162365221Y64326097D01*
X73942858Y178962756D02*
X73786505Y178983428D01*
X12101910Y64862418D02*
X11958084Y64813257D01*
X74550989Y178799100D02*
X74402396Y178851956D01*
X86948929Y64760475D02*
X86896668Y64757740D01*
X11678817Y67306587D02*
X11816932Y67243127D01*
X74402396Y64851956D02*
X74251230Y64896929D01*
X180952986Y124724416D02*
X181065788Y124826400D01*
X61666030Y181000000D02*
X61666030Y179000000D01*
X33333015Y10000014D02*
X33333015Y8000000D01*
X86896668Y64757740D02*
X86844979Y64749556D01*
X11413107Y67454068D02*
X11544094Y67376961D01*
X97932146Y64174379D02*
X97824668Y64066901D01*
X13000000Y65000000D02*
X12848052Y64996150D01*
X160785552Y178983428D02*
X160628328Y178995854D01*
X180835162Y124628280D02*
X180952986Y124724416D01*
X12101910Y10137583D02*
X12248042Y10095769D01*
X183998093Y42500000D02*
X181975712Y42500000D01*
X98162729Y10627673D02*
X98285242Y10537710D01*
X10723725Y11045883D02*
X10825621Y10933100D01*
X98044929Y64276275D02*
X97932146Y64174379D01*
X61666030Y65999000D02*
X61666030Y65000000D01*
X75485801Y121223320D02*
X75366174Y121326097D01*
X93836115Y10628280D02*
X93953939Y10724416D01*
X97060457Y126396105D02*
X97094815Y126248043D01*
X10376960Y68544095D02*
X10454067Y68413108D01*
X74696600Y64738509D02*
X74550989Y64799100D01*
X94984252Y32500000D02*
X95998046Y32500000D01*
X94096235Y159598840D02*
X89213974Y164476368D01*
X94545753Y11414366D02*
X94622832Y11545452D01*
X167513091Y173171685D02*
X167475538Y173205823D01*
X11286195Y124537710D02*
X11413107Y124454068D01*
X94638432Y114277141D02*
X94620971Y114295504D01*
X98162729Y178372328D02*
X98044929Y178276275D01*
X176070411Y50893228D02*
X176079347Y50943105D01*
X160941905Y121962756D02*
X160785552Y121983428D01*
X99395151Y64938590D02*
X99247089Y64904232D01*
X181932234Y157981077D02*
X181899303Y158146040D01*
X130332062Y124000021D02*
X148665077Y124000033D01*
X71666030Y122000000D02*
X71666030Y122999000D01*
X98162729Y121372328D02*
X98044929Y121276275D01*
X99695542Y178984608D02*
X99544763Y178965405D01*
X181805991Y101469140D02*
X181745902Y101626261D01*
X81184708Y59204628D02*
X81147044Y59170613D01*
X99695542Y124015393D02*
X99847099Y124003851D01*
X158665077Y181000000D02*
X183998093Y181000000D01*
X10376960Y120455906D02*
X10306586Y120321183D01*
X160941905Y178962756D02*
X160785552Y178983428D01*
X99695542Y10015393D02*
X99847099Y10003851D01*
X94933187Y43981077D02*
X94900256Y44146040D01*
X99100957Y178862418D02*
X98957131Y178813257D01*
X181811960Y125959743D02*
X181861059Y126103667D01*
X173844026Y64749556D02*
X173818574Y64743447D01*
X179750403Y124095901D02*
X179896599Y124137752D01*
X8000000Y156500000D02*
X8000000Y181000000D01*
X161401443Y178851956D02*
X161250277Y178896929D01*
X12396104Y121938590D02*
X12248042Y121904232D01*
X10723725Y68045883D02*
X10825621Y67933100D01*
X94975923Y43478765D02*
X94971079Y43646914D01*
X99544763Y64965405D02*
X99395151Y64938590D01*
X74251230Y64896929D02*
X74097910Y64933897D01*
X181994354Y126850252D02*
X181998093Y127002275D01*
X97094815Y12248043D02*
X97136629Y12101911D01*
X97136629Y126101911D02*
X97185790Y125958085D01*
X181210906Y102476658D02*
X181095282Y102598840D01*
X11816932Y67243127D02*
X11958084Y67186744D01*
X94670453Y171237883D02*
X94638432Y171277141D01*
X181275177Y125046846D02*
X181371226Y125164742D01*
X10034595Y126545717D02*
X10061410Y126396105D01*
X181739641Y171103638D02*
X181720845Y171150683D01*
X176179036Y107513953D02*
X176149029Y107554785D01*
X181805991Y158469140D02*
X181745902Y158626261D01*
X80692569Y116077822D02*
X80644585Y116094350D01*
X167791359Y59059733D02*
X167741028Y59066243D01*
X94754532Y171054931D02*
X94740594Y171103638D01*
X10000000Y127000000D02*
X10003850Y126848053D01*
X181095282Y159598840D02*
X176213021Y164476368D01*
X10000000Y119000000D02*
X10000000Y99500000D01*
X10454067Y177586893D02*
X10376960Y177455906D01*
X98044929Y178276275D02*
X97932146Y178174379D01*
X158665077Y66001000D02*
X158665077Y67000040D01*
X71666030Y124000040D02*
X91999047Y124000054D01*
X97014439Y176303505D02*
X97002897Y176151948D01*
X180712617Y10538238D02*
X180835162Y10628280D01*
X181766363Y170954549D02*
X181762518Y171005064D01*
X98957131Y121813257D02*
X98815979Y121756874D01*
X174241845Y178664974D02*
X174197956Y178693479D01*
X87052877Y178749544D02*
X87001190Y178757734D01*
X86975095Y64759789D02*
X86948929Y64760475D01*
X167791359Y173059733D02*
X167741028Y173066243D01*
X181420723Y159213832D02*
X181319500Y159348187D01*
X94976665Y156500000D02*
X94975923Y157478765D01*
X75599861Y178114398D02*
X75485801Y178223320D01*
X89149982Y107554785D02*
X89124262Y107598443D01*
X99847099Y67003851D02*
X99999047Y67000000D01*
X98543141Y67376961D02*
X98677864Y67306587D01*
X167741028Y173066243D02*
X167691616Y173077822D01*
X94746855Y101626261D02*
X94678055Y101779766D01*
X162598908Y178114398D02*
X162484848Y178223320D01*
X94983869Y69698614D02*
X94995307Y69850252D01*
X81084576Y173127176D02*
X81039576Y173103711D01*
X97305633Y120321183D02*
X97242173Y120183068D01*
X89213874Y108183733D02*
X94638404Y113606629D01*
X81184708Y116204628D02*
X81147044Y116170613D01*
X11678817Y121693414D02*
X11544094Y121623040D01*
X89149904Y165105298D02*
X89179900Y165146138D01*
X158665077Y122999000D02*
X158665077Y123001000D01*
X94976665Y99500000D02*
X94975923Y100478765D01*
X174000237Y178757734D02*
X173974142Y178759789D01*
X94938034Y126398049D02*
X94964762Y126547750D01*
X94971079Y157646914D02*
X94956819Y157814527D01*
X183998093Y146500000D02*
X183998093Y99500000D01*
X173697987Y121693508D02*
X173675668Y121679833D01*
X95998046Y42500000D02*
X94976665Y42500000D01*
X10000000Y89500000D02*
X10000000Y70000000D01*
X12696495Y124015393D02*
X12848052Y124003851D01*
X94670428Y56645885D02*
X94698316Y56688180D01*
X71666030Y65000000D02*
X71666030Y65999000D01*
X89179900Y51146138D02*
X89213874Y51183733D01*
X97376007Y120455906D02*
X97305633Y120321183D01*
X11413107Y10454068D02*
X11544094Y10376961D01*
X99544763Y178965405D02*
X99395151Y178938590D01*
X74838825Y178670349D02*
X74696600Y178738509D01*
X181514256Y159074014D02*
X181420723Y159213832D01*
X86922762Y121759792D02*
X86896668Y121757740D01*
X92603227Y124061512D02*
X92751356Y124095901D01*
X98957131Y67186744D02*
X99100957Y67137583D01*
X97824668Y64066901D02*
X97722772Y63954118D01*
X92151066Y67003905D02*
X92302696Y67015455D01*
X94956819Y100814527D02*
X94933187Y100981077D01*
X120332062Y8000000D02*
X71666030Y8000000D01*
X10933099Y64174379D02*
X10825621Y64066901D01*
X89179900Y165146138D02*
X89213874Y165183733D01*
X12248042Y10095769D02*
X12396104Y10061411D01*
X97060457Y69396105D02*
X97094815Y69248043D01*
X87175907Y121705970D02*
X87128100Y121727258D01*
X120332062Y66001000D02*
X120332062Y65999000D01*
X130332062Y123001000D02*
X130332062Y124000021D01*
X181745902Y44626261D02*
X181677102Y44779766D01*
X10034595Y12545717D02*
X10061410Y12396105D01*
X80514044Y116171685D02*
X80476491Y116205823D01*
X94654940Y57257918D02*
X94620971Y57295504D01*
X80476491Y59205823D02*
X75599861Y64114398D01*
X73471622Y122000000D02*
X71666030Y122000000D01*
X181621879Y125545452D02*
X181692216Y125680277D01*
X12101910Y121862418D02*
X11958084Y121813257D01*
X94759626Y170853649D02*
X94766031Y170903904D01*
X181739641Y57103638D02*
X181720845Y57150683D01*
X43333015Y123001000D02*
X43333015Y124000021D01*
X160470669Y179000000D02*
X158665077Y179000000D01*
X89086690Y164692425D02*
X89075225Y164741782D01*
X99847099Y121996150D02*
X99695542Y121984608D01*
X94812913Y11959743D02*
X94862012Y12103667D01*
X162365221Y64326097D02*
X162240358Y64422445D01*
X81062374Y59114872D02*
X81016241Y59093721D01*
X94740580Y56780124D02*
X94754523Y56828829D01*
X179602274Y67061512D02*
X179750403Y67095901D01*
X80644585Y173094350D02*
X80598524Y173115658D01*
X95998046Y156500000D02*
X94976665Y156500000D01*
X80792312Y173059733D02*
X80741981Y173066243D01*
X86745571Y121717263D02*
X86698940Y121693508D01*
X181720845Y171150683D02*
X181697384Y171195585D01*
X10627672Y120836318D02*
X10537709Y120713805D01*
X176163431Y165126098D02*
X176195457Y165165366D01*
X10825621Y64066901D02*
X10723725Y63954118D01*
X10537709Y177713805D02*
X10454067Y177586893D01*
X11958084Y121813257D02*
X11816932Y121756874D01*
X94515209Y45074014D02*
X94421676Y45213832D01*
X10376960Y11544095D02*
X10454067Y11413108D01*
X86769754Y64727279D02*
X86745571Y64717263D01*
X167892701Y116062135D02*
X167842091Y116058359D01*
X89213874Y165183733D02*
X94638404Y170606629D01*
X10000000Y99500000D02*
X8000000Y99500000D01*
X10243126Y177183068D02*
X10186743Y177041916D01*
X98677864Y64693414D02*
X98543141Y64623040D01*
X181899303Y44146040D02*
X181857178Y44308899D01*
X167741028Y116066243D02*
X167691616Y116077822D01*
X97536756Y120713805D02*
X97453114Y120586893D01*
X181902802Y126249894D02*
X181937081Y126398049D01*
X81016241Y59093721D02*
X80968202Y59077355D01*
X174301499Y64614019D02*
X174282513Y64632038D01*
X89067522Y107842702D02*
X89068803Y107868013D01*
X97242173Y11816933D02*
X97305633Y11678818D01*
X10095768Y69248043D02*
X10137582Y69101911D01*
X168015288Y116093721D02*
X167967249Y116077355D01*
X94600758Y158929174D02*
X94515209Y159074014D01*
X181065788Y10826400D02*
X181173277Y10933968D01*
X94956819Y43814527D02*
X94933187Y43981077D01*
X94421676Y102213832D02*
X94320453Y102348187D01*
X94600758Y101929174D02*
X94515209Y102074014D01*
X174262610Y121649038D02*
X174241845Y121664974D01*
X130332062Y8000000D02*
X130332062Y10000021D01*
X97094815Y119751958D02*
X97060457Y119603896D01*
X98815979Y67243127D02*
X98957131Y67186744D01*
X12696495Y67015393D02*
X12848052Y67003851D01*
X13000000Y122000000D02*
X12848052Y121996150D01*
X12396104Y10061411D02*
X12545716Y10034596D01*
X162484848Y121223320D02*
X162365221Y121326097D01*
X80792312Y116059733D02*
X80741981Y116066243D01*
X173974142Y178759789D02*
X173921809Y178759792D01*
X99247089Y124095769D02*
X99395151Y124061411D01*
X173613423Y121632077D02*
X168183755Y116204628D01*
X181371226Y125164742D02*
X181461178Y125287353D01*
X176085737Y50692425D02*
X176074272Y50741782D01*
X176135544Y51083791D02*
X176163431Y51126098D01*
X94756584Y11818492D02*
X94812913Y11959743D01*
X181857178Y158308899D02*
X181805991Y158469140D01*
X96000046Y156500000D02*
X95998046Y156500000D01*
X130332062Y179000000D02*
X130332062Y181000000D01*
X161695647Y64738509D02*
X161550036Y64799100D01*
X167643632Y173094350D02*
X167597571Y173115658D01*
X168183755Y173204628D02*
X168146091Y173170613D01*
X96999047Y176000000D02*
X96999047Y156500000D01*
X89068814Y164792047D02*
X89067522Y164842702D01*
X12848052Y121996150D02*
X12696495Y121984608D01*
X181637451Y56606629D02*
X181669475Y56645885D01*
X178998094Y67000054D02*
X179150113Y67003905D01*
X80741981Y173066243D02*
X80692569Y173077822D01*
X33333015Y67000014D02*
X33333015Y66001000D01*
X12848052Y178996150D02*
X12696495Y178984608D01*
X181998093Y70002275D02*
X181983299Y89500000D01*
X94995307Y69850252D02*
X94999046Y70002275D01*
X89149982Y50554785D02*
X89124262Y50598443D01*
X10825621Y121066901D02*
X10723725Y120954118D01*
X73629281Y121995854D02*
X73471622Y122000000D01*
X10061410Y12396105D02*
X10095768Y12248043D01*
X86975095Y121759789D02*
X86922762Y121759792D01*
X94900256Y44146040D02*
X94858131Y44308899D01*
X94174230Y124933968D02*
X94276130Y125046846D01*
X178998094Y124000054D02*
X179150113Y124003905D01*
X180319865Y124306909D02*
X180454637Y124377346D01*
X181805991Y44469140D02*
X181745902Y44626261D01*
X181811960Y11959743D02*
X181861059Y12103667D01*
X10095768Y176751958D02*
X10061410Y176603896D01*
X181753579Y114054931D02*
X181747227Y114079461D01*
X97626719Y177836318D02*
X97536756Y177713805D01*
X0Y189000000D02*
X0Y0D01*
X97033642Y69545717D02*
X97060457Y69396105D01*
X10000000Y42500000D02*
X8000000Y42500000D01*
X181697363Y170688180D02*
X181709664Y170710332D01*
X181766363Y56954549D02*
X181762518Y57005064D01*
X94622832Y11545452D02*
X94693169Y11680277D01*
X94995307Y126850252D02*
X94999046Y127002275D01*
X181677102Y158779766D02*
X181599805Y158929174D01*
X167942668Y116071021D02*
X167892701Y116062135D01*
X93836115Y67628280D02*
X93953939Y67724416D01*
X12248042Y124095769D02*
X12396104Y124061411D01*
X94858131Y44308899D02*
X94806944Y44469140D01*
X80893654Y59062135D02*
X80843044Y59058359D01*
X86745571Y64717263D02*
X86698940Y64693508D01*
X191998093Y189000000D02*
X0Y189000000D01*
X179452592Y124034674D02*
X179602274Y124061512D01*
X176163431Y51126098D02*
X176195457Y51165366D01*
X99999047Y10000000D02*
X120332062Y10000014D01*
X180835162Y10628280D02*
X180952986Y10724416D01*
X89124196Y165061632D02*
X89149904Y165105298D01*
X174102473Y64735997D02*
X174051924Y64749544D01*
X97932146Y124825622D02*
X98044929Y124723726D01*
X10537709Y125286196D02*
X10627672Y125163683D01*
X94515209Y159074014D02*
X94421676Y159213832D01*
X176070411Y164893228D02*
X176079347Y164943105D01*
X86676621Y178679833D02*
X86634281Y178649075D01*
X74696600Y121738509D02*
X74550989Y121799100D01*
X94693169Y68680277D02*
X94756584Y68818492D01*
X94766031Y113903904D02*
X94767316Y113954549D01*
X181762518Y57005064D02*
X181753579Y57054931D01*
X89075200Y164918280D02*
X89086651Y164967640D01*
X167597571Y116115658D02*
X167553907Y116141525D01*
X80843044Y59058359D02*
X80792312Y59059733D01*
X94740594Y114103638D02*
X94721798Y114150683D01*
X94693169Y11680277D02*
X94756584Y11818492D01*
X93586619Y67454522D02*
X93713570Y67538238D01*
X173818574Y64743447D02*
X173768801Y64727279D01*
X99395151Y121938590D02*
X99247089Y121904232D01*
X93455590Y10377346D02*
X93586619Y10454522D01*
X10003850Y126848053D02*
X10015392Y126696496D01*
X11413107Y64545933D02*
X11286195Y64462291D01*
X167991476Y173084928D02*
X167942668Y173071021D01*
X11413107Y121545933D02*
X11286195Y121462291D01*
X174301499Y121614019D02*
X174262610Y121649038D01*
X97060457Y176603896D02*
X97033642Y176454284D01*
X97722772Y68045883D02*
X97824668Y67933100D01*
X176149029Y164554785D02*
X176123309Y164598443D01*
X94684931Y57217088D02*
X94670453Y57237883D01*
X93041440Y10186958D02*
X93182649Y10243392D01*
X161976318Y121594809D02*
X161837872Y121670349D01*
X173654096Y64665009D02*
X173613423Y64632077D01*
X96000046Y32500000D02*
X96999047Y32500000D01*
X89068803Y164868013D02*
X89075200Y164918280D01*
X11816932Y124243127D02*
X11958084Y124186744D01*
X94984252Y146500000D02*
X95998046Y146500000D01*
X120332062Y124000014D02*
X120332062Y123001000D01*
X94740594Y171103638D02*
X94721798Y171150683D01*
X179452592Y67034674D02*
X179602274Y67061512D01*
X176093285Y164991822D02*
X176112081Y165038879D01*
X181669475Y113645885D02*
X181697363Y113688180D01*
X97033642Y12545717D02*
X97060457Y12396105D01*
X94812913Y125959743D02*
X94862012Y126103667D01*
X98677864Y178693414D02*
X98543141Y178623040D01*
X97722772Y63954118D02*
X97626719Y63836318D01*
X10137582Y12101911D02*
X10186743Y11958085D01*
X13000000Y10000000D02*
X33333015Y10000014D01*
X80918751Y116065944D02*
X80868397Y116059604D01*
X33333015Y123001000D02*
X33333015Y122999000D01*
X179150113Y124003905D02*
X179301743Y124015455D01*
X12848052Y67003851D02*
X13000000Y67000000D01*
X130332062Y10000021D02*
X148665077Y10000033D01*
X173654096Y121665009D02*
X173613423Y121632077D01*
X181932234Y100981077D02*
X181899303Y101146040D01*
X173613423Y64632077D02*
X168183755Y59204628D01*
X92302696Y124015455D02*
X92453545Y124034674D01*
X181765078Y113903904D02*
X181766363Y113954549D01*
X92151066Y124003905D02*
X92302696Y124015455D01*
X181319500Y45348187D02*
X181210906Y45476658D01*
X73629281Y178995854D02*
X73471622Y179000000D01*
X10000000Y156500000D02*
X8000000Y156500000D01*
X181420723Y45213832D02*
X181319500Y45348187D01*
X12848052Y10003851D02*
X13000000Y10000000D01*
X99247089Y67095769D02*
X99395151Y67061411D01*
X181669475Y170645885D02*
X181697363Y170688180D01*
X97014439Y119303505D02*
X97002897Y119151948D01*
X181514256Y102074014D02*
X181420723Y102213832D01*
X181861059Y69103667D02*
X181902802Y69249894D01*
X161976318Y64594809D02*
X161837872Y64670349D01*
X94984252Y89500000D02*
X95998046Y89500000D01*
X10306586Y125678818D02*
X10376960Y125544095D01*
X97824668Y124933100D02*
X97932146Y124825622D01*
X181669500Y114237883D02*
X181653987Y114257918D01*
X98815979Y64756874D02*
X98677864Y64693414D01*
X94276130Y125046846D02*
X94372179Y125164742D01*
X176112081Y108038879D02*
X176135544Y108083791D01*
X181371226Y11164742D02*
X181461178Y11287353D01*
X181747227Y114079461D02*
X181730839Y114127399D01*
X160628328Y121995854D02*
X160470669Y122000000D01*
X181697363Y113688180D02*
X181709664Y113710332D01*
X10243126Y63183068D02*
X10186743Y63041916D01*
X87175907Y178705970D02*
X87128100Y178727258D01*
X99247089Y121904232D02*
X99100957Y121862418D01*
X89179900Y108146138D02*
X89213874Y108183733D01*
X181983299Y146500000D02*
X183998093Y146500000D01*
X180319865Y10306909D02*
X180454637Y10377346D01*
X89213974Y50476368D02*
X89179989Y50513953D01*
X181902802Y69249894D02*
X181937081Y69398049D01*
X12248042Y178904232D02*
X12101910Y178862418D01*
X94638404Y56606629D02*
X94670428Y56645885D01*
X181730839Y114127399D02*
X181720845Y114150683D01*
X181899303Y101146040D02*
X181857178Y101308899D01*
X174241845Y121664974D02*
X174197956Y121693479D01*
X73471622Y65000000D02*
X71666030Y65000000D01*
X99544763Y121965405D02*
X99395151Y121938590D01*
X94721780Y56733080D02*
X94740580Y56780124D01*
X99544763Y67034596D02*
X99695542Y67015393D01*
X71666030Y123001000D02*
X71666030Y124000040D01*
X86698940Y121693508D02*
X86676621Y121679833D01*
X73786505Y178983428D02*
X73629281Y178995854D01*
X81147044Y59170613D02*
X81106125Y59140591D01*
X181683978Y57217088D02*
X181653987Y57257918D01*
X120332062Y122000000D02*
X99999047Y122000000D01*
X162240358Y178422445D02*
X162110604Y178512098D01*
X94545753Y68414366D02*
X94622832Y68545452D01*
X181544800Y68414366D02*
X181621879Y68545452D01*
X94372179Y11164742D02*
X94462131Y11287353D01*
X33333015Y179000000D02*
X13000000Y179000000D01*
X97536756Y11286196D02*
X97626719Y11163683D01*
X93953939Y10724416D02*
X94066741Y10826400D01*
X75111557Y64512098D02*
X74977271Y64594809D01*
X161401443Y121851956D02*
X161250277Y121896929D01*
X94995307Y12850252D02*
X94999046Y13002275D01*
X173895715Y178757740D02*
X173869763Y178754325D01*
X98412154Y124454068D02*
X98543141Y124376961D01*
X181755631Y125818492D02*
X181811960Y125959743D01*
X94767316Y113954549D02*
X94763471Y114005064D01*
X179301743Y10015455D02*
X179452592Y10034674D01*
X94372179Y68164742D02*
X94462131Y68287353D01*
X94622832Y68545452D02*
X94693169Y68680277D01*
X176066569Y164842702D02*
X176070411Y164893228D01*
X94938034Y12398049D02*
X94964762Y12547750D01*
X10186743Y63041916D02*
X10137582Y62898090D01*
X10034595Y119454284D02*
X10015392Y119303505D01*
X73629281Y64995854D02*
X73471622Y65000000D01*
X97722772Y125045883D02*
X97824668Y124933100D01*
X181599805Y44929174D02*
X181514256Y45074014D01*
X89068803Y107868013D02*
X89075200Y107918280D01*
X89103092Y164644481D02*
X89086690Y164692425D01*
X94174230Y67933968D02*
X94276130Y68046846D01*
X91999047Y10000054D02*
X92151066Y10003905D01*
X94462131Y68287353D02*
X94545753Y68414366D01*
X8000000Y89500000D02*
X10000000Y89500000D01*
X89075200Y107918280D02*
X89086651Y107967640D01*
X94638404Y170606629D02*
X94670428Y170645885D01*
X61666030Y65000000D02*
X43333015Y65000000D01*
X73942858Y64962756D02*
X73786505Y64983428D01*
X74838825Y121670349D02*
X74696600Y121738509D01*
X92751356Y67095901D02*
X92897552Y67137752D01*
X71666030Y66001000D02*
X71666030Y67000040D01*
X80943621Y173071021D02*
X80893654Y173062135D01*
X97722772Y120954118D02*
X97626719Y120836318D01*
X97932146Y178174379D02*
X97824668Y178066901D01*
X181982916Y69698614D02*
X181994354Y69850252D01*
X11045882Y64276275D02*
X10933099Y64174379D01*
X181275177Y11046846D02*
X181371226Y11164742D01*
X93041440Y124186958D02*
X93182649Y124243392D01*
X10000000Y62000000D02*
X10000000Y42500000D01*
X96000046Y146500000D02*
X96999047Y146500000D01*
X12848052Y64996150D02*
X12696495Y64984608D01*
X86794429Y178736015D02*
X86745571Y178717263D01*
X94693169Y125680277D02*
X94756584Y125818492D01*
X97002897Y119151948D02*
X96999047Y119000000D01*
X181975712Y99500000D02*
X181974970Y100478765D01*
X181697363Y56688180D02*
X181709664Y56710332D01*
X99100957Y121862418D02*
X98957131Y121813257D01*
X181857178Y44308899D02*
X181805991Y44469140D01*
X97242173Y177183068D02*
X97185790Y177041916D01*
X173947976Y64760475D02*
X173895715Y64757740D01*
X80992429Y173084928D02*
X80943621Y173071021D01*
X92453545Y124034674D02*
X92603227Y124061512D01*
X74696600Y178738509D02*
X74550989Y178799100D01*
X94975923Y100478765D02*
X94971079Y100646914D01*
X181637451Y170606629D02*
X181669475Y170645885D01*
X12696495Y64984608D02*
X12545716Y64965405D01*
X97242173Y125816933D02*
X97305633Y125678818D01*
X181544800Y11414366D02*
X181621879Y11545452D01*
X173675668Y178679833D02*
X173654096Y178665009D01*
X86896668Y178757740D02*
X86870716Y178754325D01*
X181758673Y113853649D02*
X181765078Y113903904D01*
X11163682Y124627673D02*
X11286195Y124537710D01*
X161976318Y178594809D02*
X161837872Y178670349D01*
X86870716Y178754325D02*
X86819527Y178743447D01*
X181963809Y126547750D02*
X181982916Y126698614D01*
X94754523Y113828829D02*
X94759626Y113853649D01*
X81106125Y116140591D02*
X81062374Y116114872D01*
X74977271Y64594809D02*
X74838825Y64670349D01*
X43333015Y8000000D02*
X43333015Y10000021D01*
X97536756Y68286196D02*
X97626719Y68163683D01*
X168146091Y59170613D02*
X168105172Y59140591D01*
X174051924Y178749544D02*
X174000237Y178757734D01*
X176213021Y107476368D02*
X176179036Y107513953D01*
X80554860Y173141525D02*
X80514044Y173171685D01*
X99847099Y124003851D02*
X99999047Y124000000D01*
X181514256Y45074014D02*
X181420723Y45213832D01*
X168083623Y173127176D02*
X168038623Y173103711D01*
X120332062Y67000014D02*
X120332062Y66001000D01*
X10376960Y63455906D02*
X10306586Y63321183D01*
X94999046Y13002275D02*
X94984252Y32500000D01*
X176212921Y108183733D02*
X181637451Y113606629D01*
X80741981Y116066243D02*
X80692569Y116077822D01*
X80514044Y173171685D02*
X80476491Y173205823D01*
X74838825Y64670349D02*
X74696600Y64738509D01*
X12545716Y121965405D02*
X12396104Y121938590D01*
X80843044Y116058359D02*
X80792312Y116059733D01*
X86819527Y121743447D02*
X86794429Y121736015D01*
X173921809Y178759792D02*
X173895715Y178757740D01*
X97060457Y119603896D02*
X97033642Y119454284D01*
X10243126Y11816933D02*
X10306586Y11678818D01*
X96999047Y99500000D02*
X96000046Y99500000D01*
X99544763Y10034596D02*
X99695542Y10015393D01*
X97002897Y176151948D02*
X96999047Y176000000D01*
X167691616Y116077822D02*
X167643632Y116094350D01*
X181637451Y113606629D02*
X181669475Y113645885D01*
X181677102Y44779766D02*
X181599805Y44929174D01*
X174077376Y178743432D02*
X174051924Y178749544D01*
X174241845Y64664974D02*
X174197956Y64693479D01*
X10454067Y125413108D02*
X10537709Y125286196D01*
X97185790Y68958085D02*
X97242173Y68816933D01*
X97136629Y69101911D02*
X97185790Y68958085D01*
X180040487Y10186958D02*
X180181696Y10243392D01*
X89067522Y164842702D02*
X89068803Y164868013D01*
X98815979Y178756874D02*
X98677864Y178693414D01*
X181697384Y114195585D02*
X181669500Y114237883D01*
X181975712Y42500000D02*
X181974970Y43478765D01*
X10000000Y13000000D02*
X10003850Y12848053D01*
X10015392Y12696496D02*
X10034595Y12545717D01*
X12396104Y124061411D02*
X12545716Y124034596D01*
X167643632Y59094350D02*
X167597571Y59115658D01*
X80792312Y59059733D02*
X80741981Y59066243D01*
X161837872Y121670349D02*
X161695647Y121738509D01*
X183998093Y8000000D02*
X158665077Y8000000D01*
X181720845Y114150683D02*
X181697384Y114195585D01*
X174151329Y121717240D02*
X174127147Y121727258D01*
X87128100Y178727258D02*
X87078329Y178743432D01*
X181937081Y12398049D02*
X181963809Y12547750D01*
X168146091Y116170613D02*
X168105172Y116140591D01*
X11544094Y10376961D02*
X11678817Y10306587D01*
X181677102Y101779766D02*
X181599805Y101929174D01*
X89149982Y164554785D02*
X89124262Y164598443D01*
X11163682Y67627673D02*
X11286195Y67537710D01*
X181653987Y114257918D02*
X181620018Y114295504D01*
X94754523Y56828829D02*
X94759626Y56853649D01*
X180454637Y10377346D02*
X180585666Y10454522D01*
X173697987Y178693508D02*
X173675668Y178679833D01*
X160628328Y178995854D02*
X160470669Y179000000D01*
X148665077Y65999000D02*
X148665077Y65000000D01*
X162110604Y121512098D02*
X161976318Y121594809D01*
X87283466Y64632038D02*
X87242798Y64664974D01*
X98412154Y10454068D02*
X98543141Y10376961D01*
X10306586Y68678818D02*
X10376960Y68544095D01*
X181765078Y56903904D02*
X181766363Y56954549D01*
X94678055Y44779766D02*
X94600758Y44929174D01*
X11678817Y178693414D02*
X11544094Y178623040D01*
X10186743Y120041916D02*
X10137582Y119898090D01*
X181709683Y57173432D02*
X181683978Y57217088D01*
X99395151Y178938590D02*
X99247089Y178904232D01*
X97376007Y68544095D02*
X97453114Y68413108D01*
X179150113Y67003905D02*
X179301743Y67015455D01*
X89086651Y164967640D02*
X89103040Y165015589D01*
X11544094Y67376961D02*
X11678817Y67306587D01*
X181998093Y127002275D02*
X181983299Y146500000D01*
X97185790Y120041916D02*
X97136629Y119898090D01*
X87001190Y64757734D02*
X86975095Y64759789D01*
X43333015Y10000021D02*
X61666030Y10000033D01*
X168015288Y59093721D02*
X167967249Y59077355D01*
X94740594Y57103638D02*
X94721798Y57150683D01*
X97376007Y11544095D02*
X97453114Y11413108D01*
X176195457Y108165366D02*
X176212921Y108183733D01*
X94812913Y68959743D02*
X94862012Y69103667D01*
X94806944Y44469140D02*
X94746855Y44626261D01*
X94698316Y113688180D02*
X94721780Y113733080D01*
X181758673Y56853649D02*
X181765078Y56903904D01*
X181861059Y126103667D02*
X181902802Y126249894D01*
X86896668Y121757740D02*
X86870716Y121754325D01*
X43333015Y122000000D02*
X43333015Y122999000D01*
X94721780Y113733080D02*
X94740580Y113780124D01*
X94678055Y158779766D02*
X94600758Y158929174D01*
X160785552Y64983428D02*
X160628328Y64995854D01*
X181762518Y171005064D02*
X181753579Y171054931D01*
X98543141Y178623040D02*
X98412154Y178545933D01*
X12248042Y121904232D02*
X12101910Y121862418D01*
X43333015Y65000000D02*
X43333015Y65999000D01*
X173675668Y121679833D02*
X173654096Y121665009D01*
X98543141Y124376961D02*
X98677864Y124306587D01*
X97185790Y11958085D02*
X97242173Y11816933D01*
X176093285Y50991822D02*
X176112081Y51038879D01*
X94320453Y102348187D02*
X94211859Y102476658D01*
X33333015Y122999000D02*
X33333015Y122000000D01*
X99395151Y67061411D02*
X99544763Y67034596D01*
X97242173Y68816933D02*
X97305633Y68678818D01*
X120332062Y123001000D02*
X120332062Y122999000D01*
X94066741Y67826400D02*
X94174230Y67933968D01*
X33333015Y124000014D02*
X33333015Y123001000D01*
X179896599Y124137752D02*
X180040487Y124186958D01*
X10000000Y176000000D02*
X10000000Y156500000D01*
X181747216Y170804300D02*
X181758673Y170853649D01*
X97626719Y120836318D02*
X97536756Y120713805D01*
X97932146Y121174379D02*
X97824668Y121066901D01*
X94806944Y158469140D02*
X94746855Y158626261D01*
X10723725Y120954118D02*
X10627672Y120836318D01*
X75111557Y178512098D02*
X74977271Y178594809D01*
X61666030Y179000000D02*
X43333015Y179000000D01*
X89086651Y107967640D02*
X89103040Y108015589D01*
X89179989Y50513953D02*
X89149982Y50554785D01*
X98815979Y10243127D02*
X98957131Y10186744D01*
X74550989Y64799100D02*
X74402396Y64851956D01*
X173818574Y178743447D02*
X173793476Y178736015D01*
X93182649Y124243392D02*
X93320818Y124306909D01*
X94684931Y171217088D02*
X94670453Y171237883D01*
X11163682Y178372328D02*
X11045882Y178276275D01*
X183998093Y89500000D02*
X183998093Y42500000D01*
X180712617Y124538238D02*
X180835162Y124628280D01*
X181937081Y69398049D02*
X181963809Y69547750D01*
X94903755Y12249894D02*
X94938034Y12398049D01*
X160470669Y122000000D02*
X158665077Y122000000D01*
X96999047Y89500000D02*
X96999047Y70000000D01*
X92302696Y10015455D02*
X92453545Y10034674D01*
X94620971Y57295504D02*
X87302452Y64614019D01*
X11413107Y124454068D02*
X11544094Y124376961D01*
X94421676Y159213832D02*
X94320453Y159348187D01*
X87221227Y121679801D02*
X87198909Y121693479D01*
X71666030Y67000040D02*
X91999047Y67000054D01*
X94858131Y101308899D02*
X94806944Y101469140D01*
X158665077Y179000000D02*
X158665077Y181000000D01*
X10933099Y121174379D02*
X10825621Y121066901D01*
X10003850Y62151948D02*
X10000000Y62000000D01*
X33333015Y66001000D02*
X33333015Y65999000D01*
X183998093Y181000000D02*
X183998093Y156500000D01*
X176112081Y51038879D02*
X176135544Y51083791D01*
X94956819Y157814527D02*
X94933187Y157981077D01*
X93182649Y10243392D02*
X93320818Y10306909D01*
X97242173Y120183068D02*
X97185790Y120041916D01*
X10825621Y10933100D02*
X10933099Y10825622D01*
X94983869Y12698614D02*
X94995307Y12850252D01*
X181720845Y57150683D02*
X181709683Y57173432D01*
X75366174Y64326097D02*
X75241311Y64422445D01*
X176102139Y50644481D02*
X176085737Y50692425D01*
X174051924Y121749544D02*
X174000237Y121757734D01*
X180712617Y67538238D02*
X180835162Y67628280D01*
X87078329Y178743432D02*
X87052877Y178749544D01*
X99999047Y124000000D02*
X120332062Y124000014D01*
X94710636Y171173432D02*
X94684931Y171217088D01*
X97136629Y176898090D02*
X97094815Y176751958D01*
X96999047Y62000000D02*
X96999047Y42500000D01*
X181932234Y43981077D02*
X181899303Y44146040D01*
X11163682Y121372328D02*
X11045882Y121276275D01*
X94670453Y57237883D02*
X94654940Y57257918D01*
X99695542Y64984608D02*
X99544763Y64965405D01*
X93455590Y67377346D02*
X93586619Y67454522D01*
X99100957Y10137583D02*
X99247089Y10095769D01*
X174000237Y64757734D02*
X173974142Y64759789D01*
X168061421Y59114872D02*
X168015288Y59093721D01*
X181319500Y102348187D02*
X181210906Y102476658D01*
X94938034Y69398049D02*
X94964762Y69547750D01*
X181998093Y13002275D02*
X181983299Y32500000D01*
X97305633Y63321183D02*
X97242173Y63183068D01*
X94421676Y45213832D02*
X94320453Y45348187D01*
X167967249Y59077355D02*
X167942668Y59071021D01*
X97094815Y176751958D02*
X97060457Y176603896D01*
X80893654Y173062135D02*
X80843044Y173058359D01*
X181758673Y170853649D02*
X181765078Y170903904D01*
X98543141Y121623040D02*
X98412154Y121545933D01*
X12396104Y178938590D02*
X12248042Y178904232D01*
X11286195Y10537710D02*
X11413107Y10454068D01*
X176067861Y107792047D02*
X176066569Y107842702D01*
X179301743Y124015455D02*
X179452592Y124034674D01*
X181730823Y56756364D02*
X181747216Y56804300D01*
X176149029Y50554785D02*
X176123309Y50598443D01*
X86922762Y178759792D02*
X86896668Y178757740D01*
X94900256Y158146040D02*
X94858131Y158308899D01*
X94740580Y170780124D02*
X94754523Y170828829D01*
X8000000Y99500000D02*
X8000000Y146500000D01*
X80554860Y59141525D02*
X80514044Y59171685D01*
X179301743Y67015455D02*
X179452592Y67034674D01*
X93713570Y67538238D02*
X93836115Y67628280D01*
X181173277Y67933968D02*
X181275177Y68046846D01*
X173793476Y178736015D02*
X173744618Y178717263D01*
X10186743Y125958085D02*
X10243126Y125816933D01*
X97305633Y11678818D02*
X97376007Y11544095D01*
X161250277Y64896929D02*
X161096957Y64933897D01*
X71666030Y65999000D02*
X71666030Y66001000D01*
X94756584Y68818492D02*
X94812913Y68959743D01*
X181319500Y159348187D02*
X181210906Y159476658D01*
X167942668Y59071021D02*
X167892701Y59062135D01*
X98677864Y124306587D02*
X98815979Y124243127D01*
X80868397Y116059604D02*
X80843044Y116058359D01*
X181937081Y126398049D02*
X181963809Y126547750D01*
X181753579Y57054931D02*
X181747227Y57079461D01*
X97094815Y62751958D02*
X97060457Y62603896D01*
X158665077Y123001000D02*
X158665077Y124000040D01*
X86698940Y64693508D02*
X86676621Y64679833D01*
X99999047Y67000000D02*
X120332062Y67000014D01*
X94174230Y10933968D02*
X94276130Y11046846D01*
X176066569Y50842702D02*
X176070411Y50893228D01*
X80598524Y59115658D02*
X80554860Y59141525D01*
X97014439Y69696496D02*
X97033642Y69545717D01*
X87263563Y121649038D02*
X87221227Y121679801D01*
X10186743Y177041916D02*
X10137582Y176898090D01*
X130332062Y65000000D02*
X130332062Y65999000D01*
X176066569Y107842702D02*
X176070411Y107893228D01*
X99847099Y64996150D02*
X99695542Y64984608D01*
X94211859Y45476658D02*
X94096235Y45598840D01*
X130332062Y122000000D02*
X130332062Y122999000D01*
X94721798Y57150683D02*
X94710636Y57173432D01*
X10186743Y68958085D02*
X10243126Y68816933D01*
X167643632Y116094350D02*
X167597571Y116115658D01*
X92603227Y67061512D02*
X92751356Y67095901D01*
X86975095Y178759789D02*
X86922762Y178759792D01*
X97453114Y63586893D02*
X97376007Y63455906D01*
X10627672Y177836318D02*
X10537709Y177713805D01*
X181620018Y114295504D02*
X174301499Y121614019D01*
X176074272Y50741782D02*
X176067861Y50792047D01*
X10015392Y119303505D02*
X10003850Y119151948D01*
X80692569Y59077822D02*
X80644585Y59094350D01*
X94933187Y100981077D02*
X94900256Y101146040D01*
X191998093Y0D02*
X191998093Y189000000D01*
X10376960Y125544095D02*
X10454067Y125413108D01*
X176067861Y164792047D02*
X176066569Y164842702D01*
X43333015Y124000021D02*
X61666030Y124000033D01*
X99999047Y122000000D02*
X99847099Y121996150D01*
X10003850Y69848053D02*
X10015392Y69696496D01*
X97033642Y119454284D02*
X97014439Y119303505D01*
X93320818Y10306909D02*
X93455590Y10377346D01*
X179896599Y10137752D02*
X180040487Y10186958D01*
X94971079Y43646914D02*
X94956819Y43814527D01*
X174127147Y178727258D02*
X174077376Y178743432D01*
X181762518Y114005064D02*
X181753579Y114054931D01*
X99395151Y124061411D02*
X99544763Y124034596D01*
X94862012Y12103667D02*
X94903755Y12249894D01*
X130332062Y181000000D02*
X148665077Y181000000D01*
X94066741Y10826400D02*
X94174230Y10933968D01*
X10454067Y63586893D02*
X10376960Y63455906D01*
X98815979Y121756874D02*
X98677864Y121693414D01*
X97002897Y62151948D02*
X96999047Y62000000D01*
X10537709Y120713805D02*
X10454067Y120586893D01*
X10537709Y63713805D02*
X10454067Y63586893D01*
X98044929Y121276275D02*
X97932146Y121174379D01*
X181766363Y113954549D02*
X181762518Y114005064D01*
X87052877Y121749544D02*
X87001190Y121757734D01*
X11958084Y124186744D02*
X12101910Y124137583D01*
X162240358Y121422445D02*
X162110604Y121512098D01*
X173720992Y64705996D02*
X173675668Y64679833D01*
X97722772Y177954118D02*
X97626719Y177836318D01*
X158665077Y65000000D02*
X158665077Y65999000D01*
X167967249Y116077355D02*
X167942668Y116071021D01*
X81147044Y173170613D02*
X81106125Y173140591D01*
X162365221Y178326097D02*
X162240358Y178422445D01*
X10933099Y178174379D02*
X10825621Y178066901D01*
X87103426Y64735997D02*
X87052877Y64749544D01*
X97185790Y177041916D02*
X97136629Y176898090D01*
X97824668Y67933100D02*
X97932146Y67825622D01*
X148665077Y179000000D02*
X130332062Y179000000D01*
X181963809Y12547750D02*
X181982916Y12698614D01*
X167741028Y59066243D02*
X167691616Y59077822D01*
X158665077Y8000000D02*
X158665077Y10000040D01*
X181620018Y57295504D02*
X174301499Y64614019D01*
X94740580Y113780124D02*
X94754523Y113828829D01*
X181974970Y43478765D02*
X181970126Y43646914D01*
X10537709Y11286196D02*
X10627672Y11163683D01*
X12696495Y10015393D02*
X12848052Y10003851D01*
X86870716Y121754325D02*
X86819527Y121743447D01*
X86676621Y64679833D02*
X86634281Y64649075D01*
X73786505Y121983428D02*
X73629281Y121995854D01*
X167942668Y173071021D02*
X167892701Y173062135D01*
X120332062Y181000000D02*
X120332062Y179000000D01*
X94620971Y114295504D02*
X87302452Y121614019D01*
X10061410Y62603896D02*
X10034595Y62454284D01*
X11163682Y64372328D02*
X11045882Y64276275D01*
X120332062Y10000014D02*
X120332062Y8000000D01*
X97305633Y177321183D02*
X97242173Y177183068D01*
X94862012Y69103667D02*
X94903755Y69249894D01*
X94903755Y69249894D02*
X94938034Y69398049D01*
X97305633Y125678818D02*
X97376007Y125544095D01*
X94096235Y45598840D02*
X89213974Y50476368D01*
X98677864Y121693414D02*
X98543141Y121623040D01*
X97002897Y12848053D02*
X97014439Y12696496D01*
X10243126Y125816933D02*
X10306586Y125678818D01*
X12101910Y124137583D02*
X12248042Y124095769D01*
X94320453Y45348187D02*
X94211859Y45476658D01*
X73786505Y64983428D02*
X73629281Y64995854D01*
X94462131Y11287353D02*
X94545753Y11414366D01*
X93713570Y10538238D02*
X93836115Y10628280D01*
X93953939Y67724416D02*
X94066741Y67826400D01*
X96000046Y89500000D02*
X96999047Y89500000D01*
X179150113Y10003905D02*
X179301743Y10015455D01*
X173895715Y121757740D02*
X173869763Y121754325D01*
X180952986Y67724416D02*
X181065788Y67826400D01*
X160941905Y64962756D02*
X160785552Y64983428D01*
X120332062Y65000000D02*
X99999047Y65000000D01*
X181899303Y158146040D02*
X181857178Y158308899D01*
X97136629Y62898090D02*
X97094815Y62751958D01*
X11678817Y10306587D02*
X11816932Y10243127D01*
X10243126Y120183068D02*
X10186743Y120041916D01*
X75599861Y64114398D02*
X75485801Y64223320D01*
X181982916Y12698614D02*
X181994354Y12850252D01*
X180585666Y10454522D02*
X180712617Y10538238D01*
X97060457Y12396105D02*
X97094815Y12248043D01*
X74097910Y121933897D02*
X73942858Y121962756D01*
X181461178Y125287353D02*
X181544800Y125414366D01*
X162598908Y64114398D02*
X162484848Y64223320D01*
X11286195Y178462291D02*
X11163682Y178372328D01*
X33333015Y65000000D02*
X13000000Y65000000D01*
X74097910Y64933897D02*
X73942858Y64962756D01*
X181065788Y67826400D02*
X181173277Y67933968D01*
X89067522Y50842702D02*
X89068803Y50868013D01*
X94975923Y157478765D02*
X94971079Y157646914D01*
X97033642Y126545717D02*
X97060457Y126396105D01*
X99999047Y65000000D02*
X99847099Y64996150D01*
X43333015Y179000000D02*
X43333015Y181000000D01*
X92453545Y67034674D02*
X92603227Y67061512D01*
X162110604Y64512098D02*
X161976318Y64594809D01*
X11286195Y64462291D02*
X11163682Y64372328D01*
X97453114Y68413108D02*
X97536756Y68286196D01*
X181955866Y157814527D02*
X181932234Y157981077D01*
X11958084Y64813257D02*
X11816932Y64756874D01*
X10034595Y176454284D02*
X10015392Y176303505D01*
X94756584Y125818492D02*
X94812913Y125959743D01*
X12545716Y124034596D02*
X12696495Y124015393D01*
X158665077Y65999000D02*
X158665077Y66001000D01*
X173744618Y121717263D02*
X173697987Y121693508D01*
X92897552Y10137752D02*
X93041440Y10186958D01*
X167892701Y173062135D02*
X167842091Y173058359D01*
X181620018Y171295504D02*
X174301499Y178614019D01*
X181994354Y12850252D02*
X181998093Y13002275D01*
X86634281Y64649075D02*
X86614376Y64632077D01*
X11045882Y121276275D02*
X10933099Y121174379D01*
X174282513Y64632038D02*
X174241845Y64664974D01*
X94806944Y101469140D02*
X94746855Y101626261D01*
X87052877Y64749544D02*
X87001190Y64757734D01*
X173869763Y178754325D02*
X173818574Y178743447D01*
X180181696Y124243392D02*
X180319865Y124306909D01*
X120332062Y122999000D02*
X120332062Y122000000D01*
X97242173Y63183068D02*
X97185790Y63041916D01*
X93182649Y67243392D02*
X93320818Y67306909D01*
X74251230Y121896929D02*
X74097910Y121933897D01*
X98044929Y10723726D02*
X98162729Y10627673D01*
X11544094Y124376961D02*
X11678817Y124306587D01*
X176102139Y107644481D02*
X176085737Y107692425D01*
X10000000Y70000000D02*
X10003850Y69848053D01*
X98285242Y121462291D02*
X98162729Y121372328D01*
X74977271Y121594809D02*
X74838825Y121670349D01*
X80741981Y59066243D02*
X80692569Y59077822D01*
X94754523Y170828829D02*
X94759626Y170853649D01*
X94999046Y70002275D02*
X94984252Y89500000D01*
X97002897Y126848053D02*
X97014439Y126696496D01*
X181692216Y125680277D02*
X181755631Y125818492D01*
X10306586Y177321183D02*
X10243126Y177183068D01*
X94372179Y125164742D02*
X94462131Y125287353D01*
X75599861Y121114398D02*
X75485801Y121223320D01*
X98957131Y124186744D02*
X99100957Y124137583D01*
X168146091Y173170613D02*
X168126013Y173155082D01*
X93455590Y124377346D02*
X93586619Y124454522D01*
X12248042Y64904232D02*
X12101910Y64862418D01*
X97136629Y12101911D02*
X97185790Y11958085D01*
X180454637Y124377346D02*
X180585666Y124454522D01*
X161096957Y121933897D02*
X160941905Y121962756D01*
X181173277Y124933968D02*
X181275177Y125046846D01*
X92751356Y124095901D02*
X92897552Y124137752D01*
X99695542Y67015393D02*
X99847099Y67003851D01*
X176074272Y107741782D02*
X176067861Y107792047D01*
X161550036Y64799100D02*
X161401443Y64851956D01*
X92603227Y10061512D02*
X92751356Y10095901D01*
X74402396Y121851956D02*
X74251230Y121896929D01*
X11163682Y10627673D02*
X11286195Y10537710D01*
X86819527Y64743447D02*
X86769754Y64727279D01*
X87263563Y178649038D02*
X87221227Y178679801D01*
X81147044Y116170613D02*
X81106125Y116140591D01*
X12248042Y67095769D02*
X12396104Y67061411D01*
X94622832Y125545452D02*
X94693169Y125680277D01*
X10003850Y119151948D02*
X10000000Y119000000D01*
X94754532Y57054931D02*
X94740594Y57103638D01*
X181755631Y68818492D02*
X181811960Y68959743D01*
X80554860Y116141525D02*
X80514044Y116171685D01*
X148665077Y181000000D02*
X148665077Y179000000D01*
X181755631Y11818492D02*
X181811960Y11959743D01*
X176123309Y164598443D02*
X176102139Y164644481D01*
X75241311Y178422445D02*
X75111557Y178512098D01*
X80644585Y59094350D02*
X80598524Y59115658D01*
X148665077Y122000000D02*
X130332062Y122000000D01*
X61666030Y122999000D02*
X61666030Y122000000D01*
X94964762Y126547750D02*
X94983869Y126698614D01*
X181371226Y68164742D02*
X181461178Y68287353D01*
X87175907Y64705970D02*
X87128100Y64727258D01*
X167791359Y116059733D02*
X167741028Y116066243D01*
X173869763Y121754325D02*
X173818574Y121743447D01*
X94766031Y170903904D02*
X94767316Y170954549D01*
X96999047Y146500000D02*
X96999047Y127000000D01*
X168105172Y116140591D02*
X168061421Y116114872D01*
X89124196Y108061632D02*
X89149904Y108105298D01*
X173921809Y121759792D02*
X173895715Y121757740D01*
X176123309Y50598443D02*
X176102139Y50644481D01*
X61666030Y8000000D02*
X43333015Y8000000D01*
X173744618Y178717263D02*
X173697987Y178693508D01*
X130332062Y65999000D02*
X130332062Y66001000D01*
X176085737Y164692425D02*
X176074272Y164741782D01*
X176163431Y108126098D02*
X176195457Y108165366D01*
X130332062Y66001000D02*
X130332062Y67000021D01*
X180585666Y124454522D02*
X180712617Y124538238D01*
X10825621Y124933100D02*
X10933099Y124825622D01*
X94638432Y171277141D02*
X94620971Y171295504D01*
X176179036Y50513953D02*
X176149029Y50554785D01*
X80968202Y116077355D02*
X80918751Y116065944D01*
X10061410Y69396105D02*
X10095768Y69248043D01*
X181963809Y69547750D02*
X181982916Y69698614D01*
X89149904Y51105298D02*
X89179900Y51146138D01*
X181765078Y170903904D02*
X181766363Y170954549D01*
X97626719Y68163683D02*
X97722772Y68045883D01*
X161550036Y121799100D02*
X161401443Y121851956D01*
X161695647Y178738509D02*
X161550036Y178799100D01*
X86819527Y178743447D02*
X86794429Y178736015D01*
X179602274Y10061512D02*
X179750403Y10095901D01*
X96999047Y119000000D02*
X96999047Y99500000D01*
X96999047Y32500000D02*
X96999047Y13000000D01*
X10627672Y11163683D02*
X10723725Y11045883D01*
X86614376Y64632077D02*
X81184708Y59204628D01*
X180952986Y10724416D02*
X181065788Y10826400D01*
X89213874Y51183733D02*
X94638404Y56606629D01*
X180585666Y67454522D02*
X180712617Y67538238D01*
X92897552Y67137752D02*
X93041440Y67186958D01*
X10627672Y68163683D02*
X10723725Y68045883D01*
X10537709Y68286196D02*
X10627672Y68163683D01*
X91999047Y124000054D02*
X92151066Y124003905D01*
X89103040Y51015589D02*
X89124196Y51061632D01*
X173768801Y64727279D02*
X173744618Y64717263D01*
X98412154Y64545933D02*
X98285242Y64462291D01*
X180040487Y124186958D02*
X180181696Y124243392D01*
X10454067Y11413108D02*
X10537709Y11286196D01*
X89075225Y107741782D02*
X89068814Y107792047D01*
X98677864Y67306587D02*
X98815979Y67243127D01*
X87198909Y178693479D02*
X87175907Y178705970D01*
X148665077Y122999000D02*
X148665077Y122000000D01*
X97305633Y68678818D02*
X97376007Y68544095D01*
X98412154Y178545933D02*
X98285242Y178462291D01*
X98162729Y124627673D02*
X98285242Y124537710D01*
X181747227Y171079461D02*
X181739641Y171103638D01*
X89075225Y50741782D02*
X89068814Y50792047D01*
X176085737Y107692425D02*
X176074272Y107741782D01*
X99999047Y179000000D02*
X99847099Y178996150D01*
X12696495Y121984608D02*
X12545716Y121965405D01*
X167597571Y59115658D02*
X167553907Y59141525D01*
X181955866Y100814527D02*
X181932234Y100981077D01*
X81062374Y116114872D02*
X81016241Y116093721D01*
X92151066Y10003905D02*
X92302696Y10015455D01*
X97002897Y69848053D02*
X97014439Y69696496D01*
X148665077Y8000000D02*
X130332062Y8000000D01*
X181692216Y68680277D02*
X181755631Y68818492D01*
X174301499Y178614019D02*
X174262610Y178649038D01*
X160785552Y121983428D02*
X160628328Y121995854D01*
X99100957Y64862418D02*
X98957131Y64813257D01*
X89086690Y107692425D02*
X89075225Y107741782D01*
X94515209Y102074014D02*
X94421676Y102213832D01*
X12101910Y178862418D02*
X11958084Y178813257D01*
X74097910Y178933897D02*
X73942858Y178962756D01*
X181983299Y32500000D02*
X183998093Y32500000D01*
X89068814Y50792047D02*
X89067522Y50842702D01*
X183998093Y156500000D02*
X181975712Y156500000D01*
X93320818Y124306909D02*
X93455590Y124377346D01*
X97185790Y63041916D02*
X97136629Y62898090D01*
X176074272Y164741782D02*
X176067861Y164792047D01*
X10933099Y10825622D02*
X11045882Y10723726D01*
X180181696Y67243392D02*
X180319865Y67306909D01*
X10015392Y126696496D02*
X10034595Y126545717D01*
X161096957Y64933897D02*
X160941905Y64962756D01*
X97536756Y125286196D02*
X97626719Y125163683D01*
X95998046Y99500000D02*
X94976665Y99500000D01*
X61666030Y66001000D02*
X61666030Y65999000D01*
X97060457Y62603896D02*
X97033642Y62454284D01*
X33333015Y65999000D02*
X33333015Y65000000D01*
X61666030Y124000033D02*
X61666030Y123001000D01*
X98044929Y124723726D02*
X98162729Y124627673D01*
X98285242Y67537710D02*
X98412154Y67454068D01*
X94976665Y42500000D02*
X94975923Y43478765D01*
X11678817Y124306587D02*
X11816932Y124243127D01*
X94763471Y57005064D02*
X94754532Y57054931D01*
X89213974Y164476368D02*
X89179989Y164513953D01*
X181970126Y157646914D02*
X181955866Y157814527D01*
X81039576Y173103711D02*
X80992429Y173084928D01*
X179750403Y67095901D02*
X179896599Y67137752D01*
X97185790Y125958085D02*
X97242173Y125816933D01*
X173974142Y64759789D02*
X173947976Y64760475D01*
X80598524Y173115658D02*
X80554860Y173141525D01*
X94670428Y113645885D02*
X94698316Y113688180D01*
X10061410Y126396105D02*
X10095768Y126248043D01*
X173744618Y64717263D02*
X173720992Y64705996D01*
X86634281Y178649075D02*
X86614376Y178632077D01*
X89213974Y107476368D02*
X89179989Y107513953D01*
X10000000Y146500000D02*
X10000000Y127000000D01*
X94721798Y171150683D02*
X94710636Y171173432D01*
X12101910Y67137583D02*
X12248042Y67095769D01*
X173675668Y64679833D02*
X173654096Y64665009D01*
X89103092Y107644481D02*
X89086690Y107692425D01*
X181210906Y159476658D02*
X181095282Y159598840D01*
X94971079Y100646914D02*
X94956819Y100814527D01*
X174077376Y121743432D02*
X174051924Y121749544D01*
X11678817Y64693414D02*
X11544094Y64623040D01*
X173793476Y121736015D02*
X173744618Y121717263D01*
X10003850Y176151948D02*
X10000000Y176000000D01*
X97536756Y63713805D02*
X97453114Y63586893D01*
X96999047Y42500000D02*
X96000046Y42500000D01*
X181982916Y126698614D02*
X181994354Y126850252D01*
X86676621Y121679833D02*
X86634281Y121649075D01*
X167691616Y173077822D02*
X167643632Y173094350D01*
X181173277Y10933968D02*
X181275177Y11046846D01*
X94862012Y126103667D02*
X94903755Y126249894D01*
X11958084Y67186744D02*
X12101910Y67137583D01*
X11045882Y10723726D02*
X11163682Y10627673D01*
X89086651Y50967640D02*
X89103040Y51015589D01*
X0Y0D02*
X191998093Y0D01*
X87302452Y178614019D02*
X87263563Y178649038D01*
X167475538Y59205823D02*
X162598908Y64114398D01*
X148665077Y10000033D02*
X148665077Y8000000D01*
X148665077Y67000033D02*
X148665077Y66001000D01*
X181669475Y56645885D02*
X181697363Y56688180D01*
X183998093Y32500000D02*
X183998093Y8000000D01*
X158665077Y124000040D02*
X178998094Y124000054D01*
X94767316Y170954549D02*
X94763471Y171005064D01*
X11413107Y178545933D02*
X11286195Y178462291D01*
X179602274Y124061512D02*
X179750403Y124095901D01*
X98677864Y10306587D02*
X98815979Y10243127D01*
X162598908Y121114398D02*
X162484848Y121223320D01*
X94698316Y170688180D02*
X94721780Y170733080D01*
X167553907Y59141525D02*
X167513091Y59171685D01*
X176212921Y165183733D02*
X181637451Y170606629D01*
X10137582Y176898090D02*
X10095768Y176751958D01*
X80598524Y116115658D02*
X80554860Y116141525D01*
X86794429Y121736015D02*
X86745571Y121717263D01*
X94462131Y125287353D02*
X94545753Y125414366D01*
X161837872Y64670349D02*
X161695647Y64738509D01*
X10000000Y32500000D02*
X10000000Y13000000D01*
X94767316Y56954549D02*
X94763471Y57005064D01*
X174151329Y64717240D02*
X174127147Y64727258D01*
X97033642Y62454284D02*
X97014439Y62303505D01*
X97376007Y177455906D02*
X97305633Y177321183D01*
X94066741Y124826400D02*
X94174230Y124933968D01*
X176102139Y164644481D02*
X176085737Y164692425D01*
X93586619Y124454522D02*
X93713570Y124538238D01*
X10137582Y119898090D02*
X10095768Y119751958D01*
X176067861Y50792047D02*
X176066569Y50842702D01*
X12396104Y67061411D02*
X12545716Y67034596D01*
X181275177Y68046846D02*
X181371226Y68164742D01*
X8000000Y32500000D02*
X10000000Y32500000D01*
X89103040Y165015589D02*
X89124196Y165061632D01*
X161550036Y178799100D02*
X161401443Y178851956D01*
X167842091Y173058359D02*
X167791359Y173059733D01*
X94211859Y102476658D02*
X94096235Y102598840D01*
X43333015Y66001000D02*
X43333015Y67000021D01*
X10933099Y67825622D02*
X11045882Y67723726D01*
X74402396Y178851956D02*
X74251230Y178896929D01*
X176079347Y107943105D02*
X176093285Y107991822D01*
X43333015Y67000021D02*
X61666030Y67000033D01*
X97722772Y11045883D02*
X97824668Y10933100D01*
X89179989Y164513953D02*
X89149982Y164554785D01*
X97824668Y10933100D02*
X97932146Y10825622D01*
X10454067Y120586893D02*
X10376960Y120455906D01*
X81184708Y173204628D02*
X81147044Y173170613D01*
X10825621Y67933100D02*
X10933099Y67825622D01*
X98543141Y64623040D02*
X98412154Y64545933D01*
X167892701Y59062135D02*
X167842091Y59058359D01*
X98162729Y64372328D02*
X98044929Y64276275D01*
X75366174Y121326097D02*
X75241311Y121422445D01*
X181095282Y102598840D02*
X176213021Y107476368D01*
X13000000Y179000000D02*
X12848052Y178996150D01*
X97376007Y63455906D02*
X97305633Y63321183D01*
X167513091Y59171685D02*
X167475538Y59205823D01*
X11958084Y10186744D02*
X12101910Y10137583D01*
X130332062Y67000021D02*
X148665077Y67000033D01*
X158665077Y10000040D02*
X178998094Y10000054D01*
X86745571Y178717263D02*
X86698940Y178693508D01*
X148665077Y124000033D02*
X148665077Y123001000D01*
X181692216Y11680277D02*
X181755631Y11818492D01*
X181709664Y56710332D02*
X181730823Y56756364D01*
X181970126Y100646914D02*
X181955866Y100814527D01*
X176070411Y107893228D02*
X176079347Y107943105D01*
X181461178Y11287353D02*
X181544800Y11414366D01*
X87221227Y178679801D02*
X87198909Y178693479D01*
X176123309Y107598443D02*
X176102139Y107644481D01*
X75485801Y178223320D02*
X75366174Y178326097D01*
X174000237Y121757734D02*
X173974142Y121759789D01*
X86614376Y121632077D02*
X81184708Y116204628D01*
X93713570Y124538238D02*
X93836115Y124628280D01*
X92302696Y67015455D02*
X92453545Y67034674D01*
X168183755Y116204628D02*
X168146091Y116170613D01*
X97824668Y121066901D02*
X97722772Y120954118D01*
X97033642Y176454284D02*
X97014439Y176303505D01*
X87198909Y64693479D02*
X87175907Y64705970D01*
X94684931Y114217088D02*
X94670453Y114237883D01*
X73471622Y179000000D02*
X71666030Y179000000D01*
X99847099Y178996150D02*
X99695542Y178984608D01*
X80476491Y173205823D02*
X75599861Y178114398D01*
X181599805Y101929174D02*
X181514256Y102074014D01*
X61666030Y123001000D02*
X61666030Y122999000D01*
X181745902Y158626261D02*
X181677102Y158779766D01*
X179452592Y10034674D02*
X179602274Y10061512D01*
X74977271Y178594809D02*
X74838825Y178670349D01*
X80514044Y59171685D02*
X80476491Y59205823D01*
X89124262Y50598443D02*
X89103092Y50644481D01*
X11045882Y67723726D02*
X11163682Y67627673D01*
X174051924Y64749544D02*
X174000237Y64757734D01*
X94620971Y171295504D02*
X87302452Y178614019D01*
X162240358Y64422445D02*
X162110604Y64512098D01*
X87078329Y121743432D02*
X87052877Y121749544D01*
X10933099Y124825622D02*
X11045882Y124723726D01*
X168105172Y59140591D02*
X168061421Y59114872D01*
X160628328Y64995854D02*
X160470669Y65000000D01*
X93320818Y67306909D02*
X93455590Y67377346D01*
X181095282Y45598840D02*
X176213021Y50476368D01*
X179750403Y10095901D02*
X179896599Y10137752D01*
X98285242Y178462291D02*
X98162729Y178372328D01*
X168061421Y116114872D02*
X168015288Y116093721D01*
X94933187Y157981077D02*
X94900256Y158146040D01*
X81016241Y116093721D02*
X80968202Y116077355D01*
X8000000Y181000000D02*
X33333015Y181000000D01*
X10095768Y62751958D02*
X10061410Y62603896D01*
X93586619Y10454522D02*
X93713570Y10538238D01*
X179896599Y67137752D02*
X180040487Y67186958D01*
X94721780Y170733080D02*
X94740580Y170780124D01*
X168126013Y173155082D02*
X168083623Y173127176D01*
X74550989Y121799100D02*
X74402396Y121851956D01*
X98543141Y10376961D02*
X98677864Y10306587D01*
X161096957Y178933897D02*
X160941905Y178962756D01*
X173818574Y121743447D02*
X173793476Y121736015D01*
X11045882Y178276275D02*
X10933099Y178174379D01*
X181210906Y45476658D02*
X181095282Y45598840D01*
X94670428Y170645885D02*
X94698316Y170688180D01*
X87198909Y121693479D02*
X87175907Y121705970D01*
X180040487Y67186958D02*
X180181696Y67243392D01*
X73942858Y121962756D02*
X73786505Y121983428D01*
X97626719Y125163683D02*
X97722772Y125045883D01*
X71666030Y8000000D02*
X71666030Y10000040D01*
X89149904Y108105298D02*
X89179900Y108146138D01*
X87001190Y178757734D02*
X86975095Y178759789D01*
X173654096Y178665009D02*
X173613423Y178632077D01*
X97932146Y67825622D02*
X98044929Y67723726D01*
X94276130Y68046846D02*
X94372179Y68164742D01*
X174127147Y64727258D02*
X174102473Y64735997D01*
X10095768Y12248043D02*
X10137582Y12101911D01*
X148665077Y123001000D02*
X148665077Y122999000D01*
X161401443Y64851956D02*
X161250277Y64896929D01*
X11045882Y124723726D02*
X11163682Y124627673D01*
X71666030Y122999000D02*
X71666030Y123001000D01*
X75241311Y64422445D02*
X75111557Y64512098D01*
X10137582Y69101911D02*
X10186743Y68958085D01*
X87302452Y121614019D02*
X87263563Y121649038D01*
X89124262Y107598443D02*
X89103092Y107644481D01*
X11544094Y64623040D02*
X11413107Y64545933D01*
X181709664Y113710332D02*
X181730823Y113756364D01*
X181747216Y56804300D02*
X181758673Y56853649D01*
X98957131Y178813257D02*
X98815979Y178756874D01*
X10034595Y69545717D02*
X10061410Y69396105D01*
X10137582Y62898090D02*
X10095768Y62751958D01*
X176212921Y51183733D02*
X181637451Y56606629D01*
X97014439Y12696496D02*
X97033642Y12545717D01*
X167553907Y116141525D02*
X167513091Y116171685D01*
X10061410Y119603896D02*
X10034595Y119454284D01*
X97094815Y126248043D02*
X97136629Y126101911D01*
X89086690Y50692425D02*
X89075225Y50741782D01*
X8000000Y42500000D02*
X8000000Y89500000D01*
X181975712Y156500000D02*
X181974970Y157478765D01*
X99100957Y67137583D02*
X99247089Y67095769D01*
X181653987Y171257918D02*
X181620018Y171295504D01*
X97626719Y11163683D02*
X97722772Y11045883D01*
X10061410Y176603896D02*
X10034595Y176454284D01*
X86698940Y178693508D02*
X86676621Y178679833D01*
X161695647Y121738509D02*
X161550036Y121799100D01*
X11544094Y121623040D02*
X11413107Y121545933D01*
X94983869Y126698614D02*
X94995307Y126850252D01*
X10627672Y63836318D02*
X10537709Y63713805D01*
X75485801Y64223320D02*
X75366174Y64326097D01*
X97932146Y10825622D02*
X98044929Y10723726D01*
X94721798Y114150683D02*
X94710636Y114173432D01*
X167691616Y59077822D02*
X167643632Y59094350D01*
X181730823Y113756364D02*
X181747216Y113804300D01*
X96999047Y13000000D02*
X97002897Y12848053D01*
X174197956Y178693479D02*
X174151329Y178717240D01*
X98815979Y124243127D02*
X98957131Y124186744D01*
X89179989Y107513953D02*
X89149982Y107554785D01*
X98412154Y67454068D02*
X98543141Y67376961D01*
X168038623Y173103711D02*
X167991476Y173084928D01*
X93836115Y124628280D02*
X93953939Y124724416D01*
X97136629Y119898090D02*
X97094815Y119751958D01*
X97014439Y126696496D02*
X97033642Y126545717D01*
X11544094Y178623040D02*
X11413107Y178545933D01*
X148665077Y65000000D02*
X130332062Y65000000D01*
X167597571Y173115658D02*
X167553907Y173141525D01*
X10243126Y68816933D02*
X10306586Y68678818D01*
X80692569Y173077822D02*
X80644585Y173094350D01*
X81106125Y59140591D02*
X81062374Y59114872D01*
X89068803Y50868013D02*
X89075200Y50918280D01*
X43333015Y181000000D02*
X61666030Y181000000D01*
X13000000Y67000000D02*
X33333015Y67000014D01*
X74251230Y178896929D02*
X74097910Y178933897D01*
X61666030Y67000033D02*
X61666030Y66001000D01*
X94600758Y44929174D02*
X94515209Y45074014D01*
X12545716Y64965405D02*
X12396104Y64938590D01*
X181811960Y68959743D02*
X181861059Y69103667D01*
X87001190Y121757734D02*
X86975095Y121759789D01*
X95998046Y89500000D02*
X96000046Y89500000D01*
X86614376Y178632077D02*
X81184708Y173204628D01*
X8000000Y146500000D02*
X10000000Y146500000D01*
X176112081Y165038879D02*
X176135544Y165083791D01*
X97014439Y62303505D02*
X97002897Y62151948D01*
X94759626Y56853649D02*
X94766031Y56903904D01*
X94964762Y12547750D02*
X94983869Y12698614D01*
X10034595Y62454284D02*
X10015392Y62303505D01*
X10015392Y62303505D02*
X10003850Y62151948D01*
X95998046Y32500000D02*
X96000046Y32500000D01*
X97376007Y125544095D02*
X97453114Y125413108D01*
X80644585Y116094350D02*
X80598524Y116115658D01*
X94096235Y102598840D02*
X89213974Y107476368D01*
X181902802Y12249894D02*
X181937081Y12398049D01*
X71666030Y10000040D02*
X91999047Y10000054D01*
X94900256Y101146040D02*
X94858131Y101308899D01*
X167842091Y116058359D02*
X167791359Y116059733D01*
X75241311Y121422445D02*
X75111557Y121512098D01*
X176195457Y51165366D02*
X176212921Y51183733D01*
X176079347Y50943105D02*
X176093285Y50991822D01*
X89068814Y107792047D02*
X89067522Y107842702D01*
X10306586Y120321183D02*
X10243126Y120183068D01*
X97094815Y69248043D02*
X97136629Y69101911D01*
X94638404Y113606629D02*
X94670428Y113645885D01*
X87128100Y121727258D02*
X87078329Y121743432D01*
X174197956Y121693479D02*
X174151329Y121717240D01*
X80943621Y59071021D02*
X80893654Y59062135D01*
X11286195Y121462291D02*
X11163682Y121372328D01*
X94710636Y57173432D02*
X94684931Y57217088D01*
X181065788Y124826400D02*
X181173277Y124933968D01*
X10306586Y63321183D02*
X10243126Y63183068D01*
X95998046Y146500000D02*
X96000046Y146500000D01*
X99100957Y124137583D02*
X99247089Y124095769D01*
X10003850Y12848053D02*
X10015392Y12696496D01*
X11816932Y121756874D02*
X11678817Y121693414D01*
X92453545Y10034674D02*
X92603227Y10061512D01*
X181745902Y101626261D02*
X181677102Y101779766D01*
X173974142Y121759789D02*
X173921809Y121759792D01*
X181857178Y101308899D02*
X181805991Y101469140D01*
X180835162Y67628280D02*
X180952986Y67724416D01*
X11286195Y67537710D02*
X11413107Y67454068D01*
X33333015Y8000000D02*
X8000000Y8000000D01*
X181730823Y170756364D02*
X181747216Y170804300D01*
X10015392Y176303505D02*
X10003850Y176151948D01*
X98412154Y121545933D02*
X98285242Y121462291D01*
X158665077Y122000000D02*
X158665077Y122999000D01*
X10723725Y63954118D02*
X10627672Y63836318D01*
X92751356Y10095901D02*
X92897552Y10137752D01*
X176135544Y165083791D02*
X176163431Y165126098D01*
X96999047Y156500000D02*
X96000046Y156500000D01*
X99695542Y121984608D02*
X99544763Y121965405D01*
X181974970Y100478765D02*
X181970126Y100646914D01*
X158665077Y67000040D02*
X178998094Y67000054D01*
X181697384Y171195585D02*
X181669500Y171237883D01*
X181861059Y12103667D02*
X181902802Y12249894D01*
X89124262Y164598443D02*
X89103092Y164644481D01*
X80476491Y116205823D02*
X75599861Y121114398D01*
X120332062Y179000000D02*
X99999047Y179000000D01*
X94710636Y114173432D02*
X94684931Y114217088D01*
X89075200Y50918280D02*
X89086651Y50967640D01*
X10015392Y69696496D02*
X10034595Y69545717D01*
X94759626Y113853649D02*
X94766031Y113903904D01*
X96000046Y42500000D02*
X95998046Y42500000D01*
X99247089Y64904232D02*
X99100957Y64862418D01*
X61666030Y10000033D02*
X61666030Y8000000D01*
X130332062Y122999000D02*
X130332062Y123001000D01*
X167842091Y59058359D02*
X167791359Y59059733D01*
X11816932Y178756874D02*
X11678817Y178693414D01*
X96000046Y99500000D02*
X95998046Y99500000D01*
X87242798Y64664974D02*
X87198909Y64693479D01*
X94763471Y114005064D02*
X94754532Y114054931D01*
X176195457Y165165366D02*
X176212921Y165183733D01*
X87302452Y64614019D02*
X87283466Y64632038D01*
X180454637Y67377346D02*
X180585666Y67454522D01*
X174262610Y178649038D02*
X174241845Y178664974D01*
X71666030Y179000000D02*
X71666030Y181000000D01*
X10095768Y119751958D02*
X10061410Y119603896D01*
X94211859Y159476658D02*
X94096235Y159598840D01*
X181753579Y171054931D02*
X181747227Y171079461D01*
X86634281Y121649075D02*
X86614376Y121632077D01*
X181621879Y68545452D02*
X181692216Y68680277D01*
X176093285Y107991822D02*
X176112081Y108038879D01*
X181955866Y43814527D02*
X181932234Y43981077D01*
X8000000Y8000000D02*
X8000000Y32500000D01*
X176135544Y108083791D02*
X176163431Y108126098D01*
X161837872Y178670349D02*
X161695647Y178738509D01*
M02*
